<mxfile host="app.diagrams.net" modified="2023-12-08T04:26:09.600Z" agent="Mozilla/5.0 (Windows NT 10.0; Win64; x64) AppleWebKit/537.36 (KHTML, like Gecko) Chrome/119.0.0.0 Safari/537.36" etag="9-xe1W9qsZWHAXR5gE24" version="22.1.7" type="github">
  <diagram id="C5RBs43oDa-KdzZeNtuy" name="Page-1">
    <mxGraphModel dx="1909" dy="5801" grid="0" gridSize="10" guides="1" tooltips="1" connect="1" arrows="1" fold="1" page="1" pageScale="1" pageWidth="3300" pageHeight="4681" math="0" shadow="0">
      <root>
        <mxCell id="WIyWlLk6GJQsqaUBKTNV-0" />
        <mxCell id="WIyWlLk6GJQsqaUBKTNV-1" parent="WIyWlLk6GJQsqaUBKTNV-0" />
        <mxCell id="xYpHXJlWxtJXdxh6Vq43-10" style="edgeStyle=none;curved=1;rounded=0;orthogonalLoop=1;jettySize=auto;html=1;exitX=1;exitY=0.5;exitDx=0;exitDy=0;entryX=0;entryY=0.5;entryDx=0;entryDy=0;fontSize=12;startSize=8;endSize=8;" edge="1" parent="WIyWlLk6GJQsqaUBKTNV-1" source="WIyWlLk6GJQsqaUBKTNV-3" target="xYpHXJlWxtJXdxh6Vq43-3">
          <mxGeometry relative="1" as="geometry" />
        </mxCell>
        <mxCell id="WIyWlLk6GJQsqaUBKTNV-3" value="채팅화면" style="rounded=1;whiteSpace=wrap;html=1;fontSize=10;glass=0;strokeWidth=1;shadow=0;" parent="WIyWlLk6GJQsqaUBKTNV-1" vertex="1">
          <mxGeometry x="240" y="280" width="80" height="40" as="geometry" />
        </mxCell>
        <mxCell id="xYpHXJlWxtJXdxh6Vq43-0" value="" style="shape=image;verticalLabelPosition=bottom;labelBackgroundColor=default;verticalAlign=top;aspect=fixed;imageAspect=0;image=data:image/png,iVBORw0KGgoAAAANSUhEUgAAA88AAAFrCAYAAADvmbsSAAAAAXNSR0IArs4c6QAAAARnQU1BAACxjwv8YQUAAAAJcEhZcwAAEnQAABJ0Ad5mH3gAAABhaVRYdFNuaXBNZXRhZGF0YQAAAAAAeyJjbGlwUG9pbnRzIjpbeyJ4IjowLCJ5IjowfSx7IngiOjk3NSwieSI6MH0seyJ4Ijo5NzUsInkiOjM2NH0seyJ4IjowLCJ5IjozNjR9XX1sOEBeAADmVklEQVR4Xuy9B3hc13Wu/U3HFAx6772y994kkSIpiepdlmzJSew/cZzEKTe5KdeOS5TEyc1N3Ktk9UKKvXeCIAmCAIneey/T+8y/18GAvUlmAYn14jkPgJkzZ86cs2ev9e291tqygAAMwzAMwzAMwzAMw1wTefA3wzAMwzAMwzAMwzDXgMUzwzAMwzAMwzAMw9wAFs8MwzAMwzAMwzAMcwNYPDMMwzAMwzAMwzDMDWDxzDAMwzAMwzAMwzA3gMUzwzAMwzAMwzAMw9wAFs8MwzAMwzAMwzAMcwNYPDMMwzAMwzAMwzDMDWDxzDAMwzAMwzAMwzA3gMUzwzAMwzAMwzAMw9wAFs8MwzAMwzAMwzAMcwNYPDMMwzAMwzAMwzDMDWDxzDAMwzAMwzAMwzA3gMUzwzAMwzAMwzAMw9wAFs8MwzAMwzAMwzAMcwNYPDMMwzAMwzAMwzDMDWDxzDAMwzAMwzAMwzA3gMUzwzAMwzAMwzAMw9wAFs8MwzAMwzAMwzAMcwNYPDMMwzAMwzAMwzDMDWDxzDAMwzAMwzAMwzA3gMUzwzAMwzAMwzAMw9wAFs8MwzAMwzAMwzAMcwNYPDMMwzAMwzAMwzDMDWDxzDAMwzAMwzAMwzA3gMUzwzAMwzAMwzAMw9wAFs8MwzAMwzAMwzAMcwNYPDMMwzAMwzAMwzDMDWDxzDAMwzAMwzAMwzA3QBYQBP9mGIZhGIZhGIZh7iButxsOh0Pa6G+WZ7cPmUwGtVoNnU4HrVYLpVIpPXazsHhmGIZhGIZhGIa5w3i9XvT19aGhoQG9vb2w2WzweDzBZ5nbhUqlQmhoKOLj45Gbm4vY2FjI5TcXkM3imWEYhmEYhmEY5g7i8/lw7tw57N+/HxaLRRJwMTEx0ozozQo55vND150GKQYGBqSBi8jISKxatUoS0SSqbwSLZ4ZhGIZhGIZhmDuE0+mUhPPu3bvh9/uxdOlSFBcXw2g0snC+A9A1HxkZQXl5OY4dOwa9Xo/Vq1cjLy9PCum+HiyeGYZhmPsal8sl5ZAxtw/KGdNoNOz0MQzD3AAK1a6pqcGmTZsk0bZu3TpkZGTc1Kwnc2sh36ClpQX79u2TZqTXrl0r3Yvr5UCzeGYYhmHuK8isUc5YXV0dKisr0dPTIzkrzO2DRHNERATy8/NRWFgohcF9ngIsDMMwk4XR0VFs2bIF3d3dePzxx5GZmQmFQhF8lrnTkGgeH8wg+/XQQw9JgxrXgsUzwzAMc99Ao8gkmsvKyiTHhIwiVdOkMCwScyzobj3kRtDgBFWJpd9UhGXWrFmYPn269Ddfc4ZhmAtQcTASakVFRVKoMEfs3H0oB/rTTz9FW1sbnn76aeTk5FzTdrF4ZhiGYe4LSCiTaN6xY4eUNzZlyhSkpqZKAo7CipnbB+WP2e12qfgK5fG1t7dj9uzZWLZsmXQvGIZhmDE7deLECRw4cAAbNmxAQUFB8BnmbkJyuLS0FJ999plUPGzJkiXXzH1m8cwwDMPc85B4q66uxscff4yEhAQ8+OCD0m/Kw+WZzzsDuRM082w2m3H8+HFpW7FiBRYuXIiQkJDgXgzDMJMXGmSk6tr19fV49tlnkZiYGHyGuds0NTXhrbfekkK3KffZYDAEn7kUjhNgGIZh7mlItPX392Pbtm1S+NvKlSuRlpYmCTYWzncOutZU8CYqKgqLFi2Siq7s2rVLchJptoVhGGayQ30hFbGkaCiOiJpY0GA73RNK/6IB+WvB4plhGIa5pxmvXErrZJJoI+HMOWR3l7CwMCn0je5DRUWFlE/GMAzDMBOViwfbrxeYzd4FwzAMc09D62XSUhOU30yFqni5j7sPOSEpKSlSPh9VOzeZTNd1RhiGYRjmXoDFM8MwDHNPQ7OaJKDj4uK4ONUEgmads7KypMgAq9XK4plhGIa552HxzDAMw9zTUH4SQUtScY7zxIIGM0g00z1i8cwwDMPc67B4ZhiGYe5pWJRNXHgwg2EY5vqQDbvEjl3+/63gcx5z/Jyk19zEywIB/83sFjxm8J/rcbP7XYR07ODfnwfpM34OWDwzDMMwDMMwDMPcYQI+NyyD7egfGYZTWpQgAMfIIPo6BuF2X7xKgR9ulwMOx6WbiypDXyb+fF4PnA4n3B7feQFq6alFb38fPL4rq0j7fV64nMFjutzitTZ0D/Wjq68Pw519MJudF4lSPzwup7Sv1x98NOCDqfMkRuyesf3Em/o8dJyLz9MDv9uKjr4utA5b4PJdes6E3+eR9qXlvEa6+tBUNQC79PrgZ6GdrnJst9cnPrMT7UNDMDsoykk63CWQuB8/b9qcThe8Ph8cdiv6+0dhsXuDe96YO7LOM70FlWanvCcq/X0H3nLSQqP8lGemUCikjSvOMgxzv9PW1oatW7ciJydHWt+ZmThUVVVh48aNWL9+PYqLiyW7xDAMM1mhVSF2796Nzo52bHj0UejVPtQc/Rgd+lxMnbkCSUY1Bo/uw6kaOVa+uAIx0TpQ/I7fM4Jj2zeirj8oIgUy4eNHJqRi1oJFSAnXiv2EQHRa0VxZgbN1ndCnFWPmlGzEhIWg8ndfxzn9cjz88AZEadXBI5Du9WCwqQYlh06iX6aALiYdaWmRqOurg3skgKzBAKLnzkfx7DQoA14h7DtReqAU7UJQ5y1ajemZsdAE7Dj6s+VwPLANK3Ni4HOYUV9+Aqdr2+GWNJ8GiRmFmJWlxHvHT8IeNROvLZyGeP1F9sDvRU9TGfaVVAkB70TryQqUV2nw0GvTEKY2IjN/DubMSYfabUZLzWmcPtsIs4tqayiQOmU+pqXp8c6pWswrmolZKdFQXSJ/AnBYenF83240DwhxLX60xkgUzpoDg28U5ZXDyJs2DdE6O371q18hPT0djzzyiLRqxNW4reKZDk1rmQ0MDKC3txdDQ0PSaML11s5ifj9IPNPappGRkVLxHNp0OvHF49A5hmHuU1g8T1xYPDMMw1xgTDzvQnvDORRlpKGxrRvtHfUwKyIQl5yDlBkzUWTtQmubDsufX3ZBPLuHcODTd3Cu90J4tNcxBK/4mfXEn2NFThTgHkZtaQmOH2+ARRaAzxxA+vwlWLp0Kro3/bkQz8uwZs1jl4hnr8OKsx9swvtvnUTEozmIis9GTm4CWgYb4Br2S+I5as48IZ5T4B5oxP5NR9AybIEPI7AMx2H5HzyPRSlKlPx8JRyrtorziIatpw2f/fhtlFmAtPRQcf4hSMmZhgUFWnx0ogz2yBn40sKpl4rngAddtSXYurcMQ8NDqCo9hpIuo7Ad85AWG4fiWUuxeEG2EM+jaDxbitLTtRixezHc2omwmWvw2Mp8bDvXgAXFMzAjKQrKi8VzwI/B9uP4yb+9CU/yYoTBCrO5EwkLn8LczEQ0VA8hd8oEEM902JGREZSVlUkbNRa9Xg+DwcDG8zZCAxM0QEHXm0T0lClTMG/ePMTGxvIsNMMw9yUsnicuLJ4ZhmEuMD7z3NHaiOUL5qK9vQPVTS2wuOSIyyrA9LmzENl6BmeqvJj7+HIh5CKFKLbBbHUFRbNMmhCTif/sg3Woq9yDQOGrmJ+dAAyfw54Dx+CPn48VC6ZAVrMVH1Z7kD91DnDsu2iNeRDrHt6AyMvEc/Wnpaip0uDhby+AxmlHb2c9ttY3QG5TIHtYiOfZ81A0MxHdZZuxs9mAVasWITPch4pPf4xtsgfxZ4/l4vQvSDxvCYrnLhz44AgCBdOxaHYsVJoQaETX7+49hx8fOg1/4jy8ukiIZ93F4tkPh8UMU0cDjp88jY72XnT5EpAQH4mCgnzMmJmOMKEj1YoLk4E+txVlB8phDRXiOleLd0vOYXpmDoqTkhAeGgKFPLivOPZwdxl27diDBc/+GZIwiNryT9CAHKRGJ6G5ZgKIZxJwNNt84MABHD16FGlpaVi7dq20ZAWvv3n7oRD5rq4u7NmzB+fOnUN+fj5Wr16N5ORkKJXK4F4MwzD3Bzcrnim3zO29YPIUSjWUFxnicQL+sUIlMmF4KWiH8sGcdgfkWi00og+9/BV+rwde39hsAIXRwTeWUxWAAXKZHPpwLcZdBL+fUph8tKPojxXieZlwABywu/zQh+qlQiQBYUOlNKegeZaJfRVi34DHCafLCZUuTJzHZSJUOAf0Gh/loPk9MInzVYWEQqcUn0GuOP9elPflG99PIKX6CEEr87thcgWg0WigU4n/pWcvEBDXwCPOe+xVY6FydO3cHgcsXiXCtBqoxh2Vi2DxzDAMc4Fx8dzV1Y6V86eh7FQ1zjR1QqYIQJ9QiPVrViKi4zg+/fQsoueuxiPPzICv/RT2nGgGpQmTbPO57bAH1FC5etHXUYGwKc9h2ZLFSPS142R5NcIKl2BOYSZCrGfwrz/dBZtPC1nTZoQvewMvPU7i+YIWk8TzJ8dFX63Cg/8wE6aqShwpOY5TbiA3LhkFJpkkngunJ6D54G60GLMwf2o2IkMAc/12/OJjHV77s/mo+uXF4rkd2375Ps461cguSERiZjbSwxXoLN2P39YNIXvJBnx1xQzEaS9M6vmcZpw9vB+nT9eh2+TF8pe/hKI4N7a9/wHOtqtQsGwOli2Yh7QwtWSfAmTn+ppwuLYTcWkFKIoK4KefboHTJhNCejGWLM4Vdkk1ZstIPHedwqaPP0XOipcRjRF0Nh3GSORMZMXGo7FmGHmfQzzflqlImnHet28fzp49K4m2119/HQUFBVCrxQem0RLebutGApkGLF588UU888wz6OnpwbZt26TQ+dsUaMAwDDOBEc6G04qOqqPYv28v9u7di337D6KiqQ8Oz+VpRH7Y+0fQ1zAAW7D4icdqRvO5anSZLLiypIgL7VWnsG/3Huw7cAgnqxvQ2VaOkyWf4PjxelSeaIU1uKff60JnSz2OHj6Aw0fOoGvQJolYa187zp2rh1MStAE4h1uwf/9u7NlD57oPh46fQmufBSM9DagpP4B+cR6X9+Qe2xDqyo7igPh8+3Z+ip/+5ud4b8su6fVHy6ql8DYaEXBbh9FQWSJdg7176ZwPora5HeahNhysaUDDkBD9V5gJLwaqKrBvlzgn6XX7cazkLIbMZvT21GJPbbsQ3pyOxTAMc3MISRfwYrinG25/NB5//uv462++jikRITANmOAR3bVCqRK6SYg/4dfT3yEaJfwuF1x2E7pqj2JXRTu8mjikFD2ClCgjVAoaZJXDH/DB6fZItsVjs0IrXhdqMEivl8Y3rxzjFMikgV65+K1QqaVBVJXy0kFUcRpQqtwwiX5/rBCZD5bBAdh1KklMXn5YmVycc4gOuhAN1CoVlArxeULU4hjBAdTL7Iy1vxmVZWVo8oZh2uLpGG06jcNHqxCWlIfsZD9qy8+gpXsQ4q3h97kx3N+A0zVl4tghSI+MkAZvZXIlNCEh4rqJzyrO6MI5CW2kNkItU+L0sSM4fOw06nsU0OtipMFimtg9P0t9E9xy8Uwj383NzaitrcXixYuxatWqayp35vZCYduzZ8/Go48+KoVyV1ZWwul0Bp9lGIaZHNCMc+vJw9hbcg6d3T3SgGJXZwdKDx1EeX2fkMsXERAC91wtju88h54+M8zDA+hqa0NjXTOG7Q5cXPt0jFGUHzmKMxVN6KHaHqMmmEfa0dpSLmxhHzpbh4S8FgQ8GGyrRokw2lUNraguO4nDJ+owanfDaRlGV1efkKjCmxDK1dxagh/tLkFde7c4Zg/6B4ZhdbphN/VL4XRmh3TESwj4XDCJc+0Vzljz2aPYuul9lFTUoqu7G/1DJri99CkD8AkBbxkZGLsG7a04d7QEVWcahEM0gvreAfTbgtVSL8GB+k07sfdQNTrF6zrbmnFqz350DA5j1NyDmt4R2D1XvophGIa5GqK/FEIuNikNCeE+nD60Ce9+uB1dbhkiYoxQytVIyp6Jhx4qQpQ2BDHZ8/HEI0uQ4PfBI5S1X6aGViHEscsJtRDGM+YtQlFqDIwR4dAKi9Z9rhGNDY04vb8G+sgCPPLk03hoTiaENr/qJFrA74LVNIiBgVGoo5Mxf8VSFOelCAF9QSbKZAqExRlhrq5HbXUTWhtqcXRfJ2JnpiBE7HbpUeVCgEcjt3g2Fs6bhZz4CGhDYzBt4SJMK0wVgld+xXn4fB6EZ2QjO0GF/u4OVJwqwZadZ9Ar7J9cG4nizEToAm54PU4MdtTiyKnjaPGEIS27EJFGygsPQB6ThsUPrceqJXkwai+KtBXKXx+RhqVrnsLswlxkZmYiMToasNvgsHsQEaEXQlpxFdt3dW65eDabzaiurpYKVVGuLQk45u5BoymFhYXIzs5GU1MT+vr6rvrFYRiGuV8J+BxoKKvEaNRiPP3c83j++RfwzJOPIdHTgsraVlzQfcIZsVrQ09WKyt4OtPR2o77yFI4cOYLq9gF4vIErRtdJWDrVCVi+7lm89sqLWDM7DwaZD/7AWCSQNFwv8DpNaD1VDr88GuuffAlPPlyMwcFG9Fts0vPSvkG8bjus6fOw/unn8cILL+CpR1ejMMkonAaPOG5wp0sIQGmIw/Rlq7F4wWxk507FzGkzUDAtE8Uz52HBopmINqjEm8ihi0jC3Aeewle+8mW88sKTUmXSsJBIqMnPIMfM7b4kPHsMH+wDQOGCx/Glr3wFr7z4DKbHyeH3k9CmzxncjWEYhrlJFIhISUNOQSr0ch98Mj2Kpk1FTlosDJGRiIoLg/Ii8Uq+u7RikRDOUemzsDQ3Bm5TO2rLP0PToEWyDWpjMooKpiPcOYhTBw/gdLcWGWnZiA8LuYrtGoNSjbTRctgCtTiwZw/2HTyC2pZuuHwXz9wK5ApEpkzHzEQ92sqOY/+eEzAZ52B1USJUsksthkIYlBCjE621JdgtjklppAcOnkBj+wjc4kSvdi6RGXPw6LOv4LUvfxlf/sorWLNqMfKmPCz+Fv+Lx158VtirwjTIXSPoaW2GU5aMeVOXID8+8kJxMHEaUtpV8N+LkStUoFTvoZ52NFRXYu/Wz/Drtz/E/pLTGDINwhvwSmHxN8MtF88kzkg8U56t0WgMPsrcTSj8IjU1VcrBo9xAyolmGIaZLMgUGqRMLUbk0EF8+P77+OCDD/DxpxvRqUhCbkbsmCEUjonLNoLGs2elGeb4LAXa+zow7NMiPiEJUaHaa4hE8aDkOATgtg/hxOHd2LS7DM39cilEbuwlAXgddljaQ5AcnoCYSC1iUtOhMcgw6HQLaXqZkxLwwXb2IDZ98A4+2rgFJ6qbcarkALbsOYKmfpckzC/Fi/72auzYsR+lZ5swqivAC8+9jpnRAXQ0lmPvni2o6xoM7jsGLU9i6u/BIDkUGanQKvywNFfi4Na9qGzqg0uaqb4Ivxd26yhGh4cxMjIKu9NLl+yqThDDMAxzM8ih90diauZCPL5+LWZl0zJPNsii4pE5Ix067YUaGwp9GtZ+7ev44z/5Y/zxH/9/+P/++I/x1VefwLw8jbA1wQrcMg0Si6dgwUMLMKVoChatX4GZszNhCFGK/ppCra9Uh3KVeM3MIix9biHy0tORlpKMqDA95AG/sDXiuKTKgy9T6qMwc90yzJtTiNwpM/DwKyuREqGRnpeOL/YhaRxiDMfUFQuxeGExMsUxKYc4NSUB4aEaYS79QqReXeBegOqOBAcLgo+Mo1DpEJ85Favmz0dh/KWRzVQn5JrHpePJlFJqq6W/C/ZAGEJko+inSUVhB+k6X+XyXJVbKp5JlPX398NkMknFqbgwyMSAZjSo2jY1RArVc7vdwWcYhmHub/weOwa6+6GIMMBS+SFONXRjeGQY/Z2VaBmQI1TlR1/3EFwuG7oaa3D8XC+ip87Cww/ORYpeDZM3GpmFszAtL1U4INcoeCkMLhldyrfSGUJhNGihFubvEjtMDohXLYzuWA4bFfHyK9TwB12jy222PEQHY3gkIsLDhAOlhk4firBQwyWVRsfxeShkexijJiu0RnG+qXFIiI9HWlwWUuKjoHKYMThownhaMhUNs4x0oLa9ASGJcSjMDgdNPMvVITCI99AG8+wuoIA22oeKg+/jJ//z3/jZr97GqV4f5OL8iZt1OBiGYZiLkcFl60PZkS345c9+hP/+7/+Wtl+8+wH2V9XC4rpaGs0F5AqNsDlRCFFdVMhSCOjYtFzMXTwfU/OSEKoZy11Wi/30Oh0Ul40Cky0yxKVg+pJlWL58OZYsmo+8jGRE6LUw6PXQhuqg1lwk4rWRyJ8zH4uXzEZyuBDD9IRMjpDQBHEeY7JSodYiMbsIi5aOHZO2xYtmIiM1BpFkI0PUN8gxlon3DBG29EJV8DFkUsHMuNRMREcZx3K4xxGfI1QbAo2Ssp2vxOdxoqGuBrVtduQuWIevfO3r+NM3XsCC/Gj0tzXgXEMPbG4ayr4xin8UBP/+vfF4PFKuM+U8r1ixgmeeJxB0b06fPi2FcRcVFUnF2xiGYe4HaMC2oaEBUVFR0qoOFwjAa+vH6YNHUV7fhN5BC9SRqQjXCXFIM6lmO2yWEZitCsSlxEGjUAgHIEIYYA+62jsw0NuP3t4eDA8Pwi1TIyk9FZHCobh01NmEs6daoI9OQUKcEVExsYjVmYRAb4cPBQgRAjNjVip0ARcGu8+h1yeDITYKzt4m1HQOoyArGwbXENoHXMgqyIJGWG5LZzm2OHPwR488gGnZqYgOMyA6LgkxOo9wtAYQlT4dMUbDeSNPRcCa61owbDbDZh5CX0sFDh0vRWu/HVazFV6vcHxkOsQLhygk4MZobwPKKo+jVx6OqQXTkGzUwGXuRoUjHLPnzsPczKjLRLoCuqhwGCINiIiKRlSEEaGKaKTnpQgHyAOHLBz5CcIxCzpOF0Mrb5BfkJuby0smMgwz6aEJLNJJVHW7uHgKwqLDoQnTwSjsV0xcnJT2Giu2hORUpMZHQzNeYOsKqJCYBoaIFMRGJ0J/kcC9GiSeoxOzEC602Y2EKw2MhgtbmBIbL84jARFxEdCOV66+ChQ7FRKWgsiYLBiCYv1qyBQqhIVFI4M+Y2gIlNc4D1phQqPVIz4uStgb7TWPdzFUoCxcCPP4cCO0tGLEZS+iCUSXk3LEYzBt/nwUCNuaEJ+CmEgKj9eKc0+AXkijqsoKhIeHIy8v75qpx7dUPFOxMMqrbW1tlYqFsXieOLhcLmm9bWoItFwIhXIzDMPcD1xbPFM+rhwKIQQbaipQ0TKC4f5udHZ0opuKXDl8SMyfjYWzcsVrwxEmDCaFVNuHetDR2QunH9AKNeuxmTAwaEdcbiZihJC91JVx4uzu7dhzpBRnzpajtqlPOAguIVp7JPGsDYrnUKqcqoM4zxrsP3AQ5RUmpOYWY1puMgKjPWgfvCCerUI8v79xH/rqq3G6tATHTp1Bs8UnnCMPPOZ+hKVeKp7JS1CH6IXAjkdScjKSDHY09w8jedpDmCkEbkpKCpKSEhApRPJoWw1KxbnaI7JRmD8NGTGRUMiEUyHE86k+LxJjE5EprsGlPo0c+lgDzEeP4nRbJ3p723D6cAnOtjSjsbEdMr8BuVmpCLu4QEsQFs8MwzAXuFQ8FyNS9NsJ6RnIEWKNBNvYlov0xFhpRvl6KFRaGIxx0GmuLWzHCRH7GUNvJJzHoGUcwyjaSeg4fYQRIdcRzhLCzmrD024o4KHQCPEehih9yFWXNryAHCE6AyLCr5UudSUU+RVp0F9VOBNyhXie7FtGMoxUIVzsJEWLGaOQkpqCxGgjnHYrys+cuaF4vuVW7Grx9AzDMAxzN5CrDUjJL8ZDjzyJ119/A2+8/rq0fOJXvvwa1i6agtjoCCRnJECnkguDK4PPYUZLVRkOHtiPQ0eO4OjRIygpPYXmnhF4r1owLAJLHn0cGx5/EIsXL8Ks6fmIMqjGQpkvMocyuQbR6VOwZOVyPLBiCVatWYZlcwoQrgtGAY3bTnEOkXkP4J++8jweXrEUS5YswZKF8zEjNw2h4hxp+ZHLraxSo0dCWgbyCwulyKLi3HQkJsUjM0/8Lf4vKixAVnqCEPIK6CLjUTB7MRbOnIPcuBioL3Fgrme/KS9uDmYWi8+nlqHTOwyfIRpTZizG8tn5iNBd38ljGIZhrsbYIC8NLF6y3bRqvMX7XcTnesVNHp9mqW/2uF/glK8L2Xi5sHmXHnbs+l+aqnR9eAiYYRiGua+RKdRIyyrEosWLsXTpUmlbvGQRZhSmQ6f0w3+RzfS5XbCMjkrrP6s0GilKRxdqQGi0XuhbOQKX1dEiUZlcMANLli/H0iWLMWdGAWKM6jFjLIz0xdpUoQpBcno25s9fgPnz8hAXGcw/E5vYPYgMIZEZ4hyXY/mysXNdumgBZuakwahWIED7Bve8BHr88k16+KK/5QroI+KQTrPARu0lI//0lzQSf9WDi+sy0oFTzXUYHPDDEDkDf/DNP8fS3Cj4rP1obW9B14j9utKbYRiGYe4HWDwzDMMw9z1yhUKqsjm+qdUhSMydghnFWUL+XkATHosZyx/G008/jUfXrcM6aXsYKxbNREKY7rJw5jFIlI4fV6XWISZ9IZY98BpWrZqCectzcXECkxRGLvZTKGike+wxY2I25syeCu34A+K3QnHhXGmjApxRKcWYvmA9kiIvrTB6BeE5WLxwFbIjrzTxJKRpVuOSjyFTICQqG+tmFKEoVn9Vx0CmEp8rLgnZM2dh9ZMPY+2KFXho9YOYOy0H8dGRUrgewzAMMzEJeD1wOhxwOV1weVzwXTEQfLNQFWyfFAX1+QjA5/PC7aWlHO/toVYWzwzDMMykg9a2NETFISE2Uqo0PY5SY0BK7jQsWrYcy4Kz1LQtmjMNSRF6KK8xM3seuRLaiFSkZ81EZlYcUjKiLhHnV0NjjERScjxU15r2DaINi0ViSh6MWs3VZ5/HCYlCWkoWIkNudLLjUAXTKOQlxCJOT7PmwYcvQm6Iw6x5izF9agbi4yJg0IYgIjoRaXnTMGNqIRLCbq6oC8MwDHNnCfhMOPSL/8Jf/vk/4xe/+yl+uesT1I0Gl5YSQlZaEuoSQUtLRdFSVVdZ+ingxKmS3fj0VCPsnsuXv6LXBf8U0HPjG7wONNZWYtepWnSZPPSk9Lj/ilSksfMZE9iXPzcxYPHMMAzDTEpIQNMs7CXQrK9SBY0mRCoWMr5p1DdaWuMCMplCmjmm2WU5zTAHH78W4/luN0LaT0HFUG5wRJrdFvvd5OmOQa+h63Gt14jPpNZooLq4GEvwWqnVqpu+NgzDMMwdxGNFzZGN+M+dh9Gv1EhVpnVKYc88Qzh65hA+2fIBfvXj/8Lvth1Gr13sH/Cgu+Uc3vvNT/HfP/kljlU0wOEdOxTgg72nBps3foL3f7sLzQOjqKw4hjOdJgT8XvScPY4zZ5owah3GibK92PLxL/Dzn/4MO0rPweyGZJfUKhUco8OoOnIKWza+jf/3k5/h0yM1sLvEm/jsOHdsM/7tP/8Hb23cgp0lG1E54Aq+98SBxTPDMAzDMAzDMMz9hlyFqNg46JNzUDhrLlL8tUKs7kXr8AB2/uSv8c6heoQnhqJ822f4aG85WpsqsO3jYxjwxSNF70PN/uOore+DV5oClkOlj0RqairSclNg1Ppx8vB2lDQPI+DzoOPEHhw9VoPBvhZs/+CXONLhhS4E2C+E+8EzrWhtb0BpXStaWmvwm/few95OBcKVXhz55ds41DKCppPb8LP//BDG4kI4GnbjT//uVzjVz+KZYRiGYe4LpLC2YLibFJb2eyAdI/j35+FWvDfDMAxzn6LQIC41DYkZecgqKEKMgdb9l0EW8CEQMQOzVjyHhxc/iHWpPqhqS9BUth993WcRHReB8OgIDCiHUTPYBYfHJw4mg8oYi5zcXORPz0KkfmzJp/HwKipNKR1bGYKw1NlY+MBjWD1vOqYrzbD39cJFz8nkwmYpkByTj/VLF+Hx9XMQmTeAsv5RVPc2w/fkn+GNB1bgsVWLMC0t8HvkZt8+WDwzDMMwzOfE77bg2Du/wvd++DY+2b0R286ehdP3xUSs3zWKnUfL0Gz6nCPszkGcOnUMx6rbYXGRY8MwDMMwlyEUqN/ngd/rxSULLmr0UGtChAAOgJaUVol9rJ2j6K3uQmN9Jc429iIsMhk5iXHQKIKSMeCH1+uB1yNU7cUmjzT0uI6mFCN1CNSqsfQhtTwAxSX5y3JoVWrogqlN0Iqd/B4o3X3ISYmTXmMI0yM+WbyGxTPDMAzD3OMEvBjpLcPbZ7qQkp2F3LQMJIdHQOZ3wWwewcjIMIaGh2Gy2uH1B4TT4oXVYhGPDYnnTHC6PLh4sthr7ceOgyWo7DDD43Vj1GKFSwhxCoNzmEbhcLjgcjswYh4Vrx8SxxmB2e6CT6ZBVFQsYiL0gNsF07AJI6MjGBwcEu/tBBVD9XvFOYnzGRSvGTGZYLJZpXNiGIZhJg8X2xz6U5Ky5yOXSKSK30LIGtKikffQfDz6wmv4yldew5ceW41paXFQKSRZLBj7TXaNZoWpqodX2B8nVfEW4vzCMO74scffb+wv6Uf8QxvpYulx+lumgleXisaeQVgdToyOWDDcKyMdPuFg8cwwDMMwnwdHL47s2IiTFeVo7euHvec4PjlxEt3tpfjP//kHvPmf38N3vvtd/M/bm9HcP4re1hp8+M5v8f0f/AA//I8fYVdpLUzO8QosAXTUlaOqZA/e/9ERNLdU4rs//R3Kem2w9Tdi75vfwbY9p3Dq1Fb843/8M/71h/+Mf/jH7+AnH+xHZ08bjhzbh/0V9Ti9fRfe/Osf4nv/99/xT//rb/Avv9qJAYcb3bUH8H9/8E/4P//2X/j+f7+Jf37rV2gamXg5ZAzDMMxtQqaAThsCtVJIXaUGoVq9EMNKaLU6aFW0bKICihDxd1gskqcuQqhagT2ffIzt2z7Flp1bUNvec2HQVexr1ChhbWxGj1mOjNhYtJTsxZ69B1De3wunUQWl2IeKbqqpYKZcCXWI+Futgkqlhlb8VquU0GjVUNLzMiVCxHtrVCHITchH+OG38M6ePdh+rAJ9Zg3CxP4TjUknni/ODfN7nLDZrXBKcfwXIfYZz2Ub22ic5FLoOBeeF5v0Gh+cVjNsNjt8F70PwzAMcx+hjceiNY9g9gMbsGH1MhjdnegxmeHxuOCwKTDzoVfwxlOPINbcgbaGKjScKYHdpcLyVWswPSMMB2sa0DBgkWaGaRQ/JX82Zixfi1e+sQIJKj+GRsxSCDjNPNuHh2C3O+E0meByh2HBo6/j6dkZkNeUoburB4OjIxi2OOCw9KLfrsKyR1/FX7wwE0MNn6GyuwclR7bCXfAYvvW1l/BguhIDvSZQtB3DMAwzSQiJw/pl8zErLQLa5KX40kMbkBuXgNUPrsXS7HAo9eHIXPYoZi2ag9T0qXhgzYPIj1fD5dcjJXsm0pISoBxfUUGmQX7BDMyKN4p/VJi16mE8VGyExeHG7LWv4ZFFBYgIj8XiufORF2uALjYFU1euxNTibBTkTMGq6TnIy0rHvJWzkR4fDrUhCasWP4kHM4yITS3Eg4+sgtpkgz4sDsumhCNWHzL2vhOIySOehRh22M1o6RnEiH1sxN8+1ILKqnK0DlnOi+OAz4WRwTbU1pxDZWXl2FZVhaaBUbiD+Wzk0JgGOlBZUYHy8tM4XX4GNXUN6B8cQEvZCVRX1sLiZu+EYRjmvoRGytVqKMUWqteOLfEkHAta+koblYHEuFTERQqjH+JDwDSAvqrTOL7zM3z43u+w+WAJmgeGhIC9YCNouScakddoacknGtinQDhyVGQXlqbShEKfkIuExGSkhYcgXm4FfG5hxWnkHkKIa5ESlYKs+BgkpMZAHueGZbQPw85eZM5bjpS4OGQX5CAtYew9GYZhmEmCKgJzp+QjOy4U6pgpeGDWQiSHR2L2zHmYmmSAQmNAwtT5yC3KhFYdgqTsaVj/xPN44ZknsHBqLsJClJJFGkMGY1IuVj0hBHacFoaoLKzZ8DJefO4ZzBfHy89IgTE0HEX5hUgJ10ITFoOMadOQkZaI1KQMzMhKQnJiPPJn5CA+Qg+VNhozihZjRqwGnY2ncbQ3BNOL85GkjkGIfykyYi6880RhEolnD3q6GvDunlJU9tikh3xuO8yWUTjcF2aePcO12Hv4Q2zevQN79+3DPmnbhN/s+gSNo8JREfi9TvS11WLP7u348MN38JsPN+HI8ZNo7xmAZWQEFrNFCm/guWeGYZjJBUUgUeQSWQBpZlmhgjExDYvXP4Wvf/Nb+NaffxN/9/QqFMSGXrSmMu1NaybTOsvCLDu90mAt5StbPG54aT86pt87FvUk9vVJrszFTkVA2B0fvMGoKEo8o4qnGihh6++Fx+eDzWSCecz8MQzDMMzEQa5GWlo2Mm0VQncdQJMnAo++/jhSNMHnJxCTaubZY7dipGcYNueYWKZy6VRi3efzwuul5UaEMHYMoNfmgT42BekZmcjMzERGshGWvioMBmesFWo9MqcuwasvP4s1qxdh8cOP4NknHkNxdpKUT0BOjF84KheHiDMMwzCTCSGIhYZVGmIRk5UPD1xobmtFe1sDugcGpXSh8xZCoUS424Tq4+cwilAkYxAnDu5HyelytPhs8KppJnqcm7MrUupRSByyk6eg48D72HbgGI6WN8JkU10Iv2MYhmGYiYDQZMaEfGx48ctSobJnn1qFrPhQKIJPTyQmjXj2eX2wDwwj0NcDm90Bt/A/yLkw9bej/FQZqlq6MTzch35XFJLVWhzcsQNbt27Fts8+wu/e3QRZ/EoYnYPotbqlG6zShCBEJYe5rxNmixkKvQEalQo+jxmttWdQdq4RQ2Jfls8MwzD3H8qQGMzMTYVeo0BoXDFmpafDYIhDUW4uokPV0IRGIDE3H3FxycjKn4bEMAVqykpR0TQIrTZUvE51XhDLQ8KwPC0cfWXnYFLH44lVWXA1n0RNnxMFy5ahICMGsbGpmJ6TikitCobEDKRPnYromATkCWFekBKHhMwMFM/MQBiFfhtSMKtoHpJDdcieshTpejtOnjqLAa8e+YkG6GhNEoZhGIaZSFChMV0owsLCYNCHSClJE5HJIZ4DAdjMVnR3mZGQFgK7vQm9Foc0M+x1O6Uwa7vNiv72KpSUlqGxzYKQ0FhkZmYhSzgkqXERCOnrQOmxYyjvtowd0ufGSF8/OtpHYevqQGOTSSrPHgh44bBbYbE5pJw2Fs8MwzD3HxpjJp5cOhORehVictfg6XlzEBObi4eE2M2I0kIfk4Qpy1YhOz0W4XGpeHDt43j9y6/hpWeewcLibISGXBCwMoUeM1Y/gjfeeBipkaEoXvYsvvYHb+DZJ5/DIxtewey8bOTkzsBji2chJUyLyOJ5mL1uLdKyCrBs8UqsmpaDgvlzsPqJuYgPDYEyehqeWv0ypkb60dPXA3doErISopGsi0V6jHhvzeQJOmMYhmGYW8kksKABuCwDaDh0ACZXBJYtm4Po0RqcLT+LYbcfEcnZWLRsCWbmpyE2LhmZ2Tkoyi/GjIwYIawdsLtliEqdh/n5GcjLyRKOi0YSzqNt1ag9VI74zEWYEq1FzfEytA5ZoVRHIH/6QiyZU4Q44cSwi8IwDHP/IZOrEWbQSiHQSo0R4TodlLQEiMEgpe/IlSpoxd8atRDJciVCw6OQnJKKpPho6C6adR5DBlVYJJLT4qFTiddqIpCYlIrE2BgYDOHQaDRi00rvp1LIoQzRQ2c0Qq0OgUFvgEGrQYh4f2OYTnpeptQiPDQCWrUa4QY1PAMt6OkdgkeThWkz5iBUzWHbDMMwDPNFuO+1nVQZu6cCzYPDSJ89DVNyi1AQlwVfWx+6e6zwK9RjjkmIFlGJuZhRkAytuCqh4bFISUlDWnoaUiJVQoD7kV40E8Vxergdo+hqqYFdn4A5ixdg+qwpiIy2obW3Dw5vAEqVSlrPTMF5ZQzDMMzdQqFFevEKPPPMU3j00XV48OGFyEqJhJJNE8MwDMN8Ie7/iVGZHNqIFEx5YA2mFCdDozUiqWAOZs+fhjiDGrLLinq5RxvQ0NSMtLyZWL3mYaxdKxyO2WmoLj2G5lGPtI9CGYKY7OmY9fAKJAoxHZGSiVnzZiM7NgwK4ZRwnTCGYRhmIiBThyIlZwqKiwuQlhQ+IYuvMAzDMMzd5uJCz9ISkdfgvhfPMrkShugc5GRkIFQ9tl6mxmhEQnYyYqL1oOC5sfU0x1CFpSMmIgJny45h8+bPsGnTJmw5UI6Y9AKkGFViDwrRC0VMSh6SYozSCL5coUF0ZDxSoiIRolKK97z4iAzDMAzDMAzDTHaUSiVCQkLg9dJKP2Or+DATA5fLJd0TikiWy68tke//mWeBTK64NIRaCGiZuCi6yGTkZOUjMVwXfEI0amMWFqxYhsLsRISHGREaGoqIjFlY/dQapIcFC7yI18vFMS8WyCTKFSotEgunIjs3EzppySqGYRiGYRiGYRhATbUowsMloWY2m4OPMncbmnUeGBiA0+lERESEdJ+uxaRWeCp9FBITkhFl0JwXwjK5CrFJGVi6fCXWrVsrtnVY/cADyEiIhOoGV4teG5mchvjEOGhYPDMMwzAMwzAME0ShUCAmJkb63draGnyUuds4HA40NDRAr9cjJSUFKhVFG1+dSa3wZDI5lAol5JfFtdNMtU5vgNEYJq01FmrQ3WSemAxypVL6QnDYNsMwDMMwDMMwF0PiOSEhAefOnUNbW9slubbM3YEGMuheFBcXIzk5WYoovhY8PcowDMPc09CAJeHz0Wr7zETC4/FITsj18scYhmEmE5QSOnPmTIyMjOCtt95Ce3s7C+i7BF13Es5bt26VQrVnzJgBne5COu/VYGvGMAzD3NNQ8RXCarXC7/dLfzMTg6GhIck5oQIs1xvJZxiGmSzQgG9eXh6eeOIJ9Pf34+c//zmamppYQN9hqDhYRUUFfvCDH0jXf/Xq1VLI9o1slUzcqFt2pyjJeteuXdi7dy/+8i//EklJScFnmLsNjW799Kc/RWRkJJ577jlp1IthGOZ+wG6347PPPkNnZyeefvpppKWlBZ9h7iZUEOfHP/6xFBHw4osvIi4uLvgMwzAMQxKsvr4en3zyCRobG5GVlYWCggLJV6eq3PcKNBhwL0V+UUQUDezW1taipaUFubm5ePzxx6XrfzNRUiyeJwksnhmGuV+h2eazZ89K4W+zZs2SRvNpppO5e5BrcerUKfz2t7/FmjVrsGrVqvMRAgzDMMwY1FeaTCapWNWZM2ek36Ojo/dMFJXNZpNyhXNycq5bZGsiQQMTVPE8OztbCp8n8WwwGILP3hgWz5MEFs8Mw9zPkP356KOPUFlZiSeffFLKWyJDzqHCdx5y+rq6uvCzn/0MWq0Wr776qlQch2EYhrm/oJnz733ve/jv//7vG+YK3y9wzjPDMAxzz0Ozmg899JAUsr19+3aUlpZieHgYbrdbEnM0Tszb7dvoGlP+mMViQU1NDT744APpvjz66KMcrs0wDHOfQiHQ1PfTUk+TBZ55niTwzDPDMJOB7u5uSTxXV1dLQnrKlCmIj4+XxDVXfL49kBtBDhTZGcoho9BDCol77LHHUFhYeM+E8jEMwzCfj6qqKnz/+9/HD3/4Q0RHRwcfvb9h8TxJYPHMMMxkgUbBjx07hp07d0oVuPV6vbQExb0Qwk0mmXLIaBSf+uvxZbgmMnTOdM2pcBuxYMECKceZzp9hGIa5f2Hx/HvC4nniwuKZYZjJBoUQUwXuvr4+yT7dQnN326BzLCkpQXl5OV555ZV7pq+m2eWIiAhpmY+oqKh7QvQzDMMwvx8snn9PWDxPXFg8MwzDTHwod3jTpk3Ys2cPvv3tb/PsLcMwDDNhmYzimRPAGIZhGGYCQWPa4xvDMAzDMBOH2yKe2eBPPPieMAzDMAzDMAzDfHFuqXimSqaU90SFQ3w+X/BRZiIwfj9oYXBe95RhGIZhGIZhGObzcUvFMwkzWp6CMJlMPNs5gaCKs0RYWJh0nxiGYRiGYRiGYZib55bPPMfGxkprara0tEgz0MzdhwrQ0NqnNOOcnJzMa24yDMMwDMMwDMN8Tm55zjOJ56KiItTW1krLgzB3H4oCaGpqkqICUlNTeQkRhmEYhmEYhplQXCgWeXPRu7evsOTnO4/JxS0Xz3q9HoWFhVKO7YEDBzA6Ohp8hrkbULj24cOHJfFcUFAgrb/JMAzDMAzDMMzdhcSpnwRqwA/LYCNq25rQ3taM9q5huL3+4F5jXCpmA3Bb+9HTfAxDdpf470oCQot53G64XK4Lm9sDn//Svf1eL9zB590eNywDI+iqaUVH0yl09zbDwYHEl3DLxTOFbqenp2PhwoU4d+4c3n//fWkGmkcu7jxmsxnbtm3D9u3bpQGNqVOncsg2wzAMwzAMw9xtvGacqz2DI2ebMGp3w9RTidMN1WhqqEV9cx9cnouLL7tRW34S1S0jwf8Bl7UHHTXb0Wt2XCme/Rac+ey3+IdvfB1fff0NvPEGba/jK6/9b7y/uwNjepgE+AD2f/L/8MZX38AffP0b+JfffoKKpmG0l4lzOHcAza1VsLF4vgSZELW3RdXabDaUlZVh7969Upjw9OnTJVEdGhoqCex7BcoTvpeEP52r3W5HV1cXysvLMTIygtmzZ2PFihWIiIjgStsMw0wqqPu+2W6P+s/b1UeSFbmZI1ONio0bN2LPnj349re/zdFCDMMw9ykBzyD2HC5Fly0CDy2eBk/zJ3j/RBcUdiXi81dg/YqpCNONT3o5sOu9D2BLWoJ1syPQVFOFttZq9PecwZTHvotpSeGQX2xkvL349Nfb0GlTIzsvAdoQStm0oPS3p4Gi9fjGn89CiLB5zpF27N79KcocBZgfYceo1Q63TQOF2YmwlEboEopQPOdpxGrHDns5VVVV+P73v48f/vCHiI6ODj56f3PbxDPhdDrR3t6OyspKNDY2SjOhFM59L4hRcqA8Ho8Udk6i817KE6ZzNRgMyMjIwJQpU6TfFE7PwplhmPuVQMAvhOcF20L9ndvWj73tTszLSESUTi2J14AQp1KI3EXI4MPAQC/OdjtRmJuBRMOVETpkt+g9Ln2pDHKF/BJRfMl5+L2wDrWhZ9QCkysccVGRSE6KgPI6XTGLZ4ZhmMmBa7QT+zZvwzlHFNauWwlDz2b8avdZ2Ewq5C3YgKcenIHwoHgOeIbw3r/9BQ7rnsdfPVeAlpL9qGluhNPVj+Uvff8q4rkHH757HJrYHCxdkA2DjlbaGcWOb3+Keu00/NFfz4VWGDQSzwdLDqAv/lGsiehH5amTOFs7DLXcgNScduhZPF/BbRXPBDkCJEIdDocknmlGmh6b6JDjReHmv/jFL/Daa69JFcTvBei8tVqttCSVTqeTwrS5QBjDMPcz1r5qbPno5/hoZyVMDiFoQ0Kx5IU/xZOzDPivCiu+sXIWcqP0kkgu/eQ/8Q8/3g63sEsByKGPScK6r/4VZkWO4tPyUTy9dgVmJuiDRw7iNuP4zrfx32/tQNfg2LJ/RMCYgOV//H/wD6uypP+dpgHs++kP8Yttx2HRRGLm/DVYsyQCZusw2kbTUJyXhQXzshDC4plhGGYSE4C9rxUnPv4MXc4AFHFCSEdMRaa+G7UmJRICCgR0eVi2qABGEs9+B9pOfIyftRkwC73YZcrD3z47F6rBM6g9/SHCF/09piREXime3z4KRXQWli7KhVGvQiAwhG3/51M0G2bha38zD1pxHs7hdnz4KyF+P61HlFGP2LnL8eC8Fcjp7YbdeAbquAIUznoCMSyez3PbxfPFjL/VHXzLLwyJ0N7eXnz3u9/FX/zFXyAlJSX4zMRmfHZ5/DfDMMz9zmjHCWzf8QGquzUIM0RBE5WKhUsWIVXVg796vxTzM7OwbPE85MSGwj7ci/buPnQf/i+ciHoF66clITYmCr1t1Xj/tBDP61YK8awLHnmMgL0fhw9tR6U7HbNSomFUiwd9bpw49Rl2Gx7HO89Mpb1gH+rBkR/vgiMjFQmZCnS2tGBwsBNuIeYD6gIU5WVi4bxsFs8MwzCTGJ/bjs7yk2josiB1wULEynpRV3UWNmFXbMYsJMoD8KsTUVSQAo3MjpM79uKX+334//7+EeQqhnHmZAV6ArlYmDuI+hNvI3TBP2Jq4mXi2W/CiU8+wZbD5egbaceA3QNjZBLktigsf/areOHRDNBcdMDngUnYqfqqClRUt8ChNiKcJuCELVIKwZ2ZPxU5woZqaeerMBnF8x1NPiZBRxvlPE/0jc7z4hDzq+0zEbfxa8wwDDNZoD5PpQ5BqDD4lGYTGR2H6DA91AoSvmb0DwzA7PSI/lwGQ1QiCvJzEWUcBmISkJuTg/iwkKAxvFbfGYAiRI/4tGzkFxZJyzEWFRUiIyUGyku8FRk02iikZ+UhNzsNxhA/TCYz7E6vOMTEHzRmGIZhbj8KlRbJMxdi2frVSA8DakrLsWXzYbzz4UFseW8TGtxxyM5LhVajlFKNvLoM/M3frUeGqxk//a9/xy/f/xhb3/t3/MdPj8KTsgHJEZSaGTz4OHIjZj3yHP7y29/G33/9ITz6+GL88d/9b/zbj/4Wzz6cJglnQqZQISw6EZkZyYiPjkCoUgav1YSRkQ7Und6Gc/UVsHLBsEu4dyp3MQzDMMzVEF5DTEoyFq9aiXVrH8aq2TnQCcHr8gHaKUvxwrOPY05aNBRBoeuxtWDXj5tRv60CJhK2N0Qmjc5bRwfR19uDnm6x9fZixGSXnhuHnJeBwd342z99Hs++/GfYVWHH7IWLMT07FhqNCioVp9AwDMNMeoSxUFBapW8QJTu24kSTB/MefhqvfulVvPDwdDQf/DG2nKiCTRgxZUg4Fj8wHemaIbz90f9AM/UhvPLKl/Dqy49jXrocFdtOom/UEzzwGH6vG6bRYQyMmGCx2eFweuByeeGwO2G3WTA82I+hYSt8wTFdv8eJnrqT2LnxQ2zctAmbPvsMm7fvQWlVPywuDYvFy1D8oyD4N3MZlKN95MgRLFq0COHh4cFHGYZhmIkEGf7Wmirs2n4Ae/cfwqFDx3Gu3o2IaCMCIXoUJUQjVKOUZK7fY0X1tu3YkboOK+Oa4ZQlIynegMH+HpzrcaEoNwMJoZcWDBPSGaaeVpw8sB8Htm7Dp7/ajtNNVegYlGHG3AWYnRwm7aXUaJFcXIScgnSEhBoRadTAKZwfh1MYW60B6VmpiIvQX9cRoWin2tpaNDc3Y+XKlVLtCoZhGOb+w23qQFPdOagiMzBz9nSkJsUjPj4Knp4+eDxxyMqKRwiFUNFg8EgzyvcMYva61ShITURsXCxCQzww9bcjJGs2ksK158O2zf3Nwh4KAbxtF0pKjuNUzQB6e6xoOFuJkydOoLT0FNp6NcgrSoVWKYfX4UBfbTVk8YVY/8wzWLVsKZYtW4kVKx/GDGHTIg2a84PPlzMwMCBppTVr1kwae3VHc57vNTo7O6U4/m9961tIS0sLPsowDMNMJAJ+H0y9Dfhw01acqGyGRiETUlb8yIXTMX01vvXkcqSEacWOXnSc2IQ9O0Yw/w+fh67tDD7a1YN5zy2GztSID8tNeHodFQy7yAGQqmf74Xa74HK5MXiuCcc/7cb8P56LCOGsqIVgDlEroQhW3fa6rWisPo19JefES6lCd0A8ZkP7iAYLH1yN9UsLEDJ25KvCOc8MwzCTg4DXhraaczi05yiq2zth93khUwQQWzgPDwl7MS0lGmphz6R9PTaUHn4PWw/UwTTqFA9oYDSkY9Gq6Zg7f44QuGMrSkj7+r1wulzwein9lB6hlE7pKckmEQqlBlqtRhLcXvsIzu78Dd7acgJOffSFkG61EUULVmHtqgVIDr+65ZqMOc8883wdeOaZYRhm4kNVtEeG27G51Y6ozBl4dNFMFBUXIiMhBHuHVViUm44Y4VjAPYCjezYjZtUzmJ0VBUNUmHBMhnCkxYYonQ9NA+4rZp79rmF0d7SgrbMXg0MjGBAOTmtTP9TJatitoxga6MOQwwe9MVSIdvEWDhPKykrw2eEqeMTztNb+6KgJTmUYCmhWOikS1wve5plnhmGYyYFMrkZ4dCySUhKRlJqG3PwCFE+djcWLFyM3IQKqi2Z7ZQo1EhOykRgbi4zsPBQXF2PG3HmYPb8IRrXivHAmZDI5VCo1NBrNNTe1SnleUFPec2hcMtKy8pGbV4BCqa7HWG2PvOwMxJGtVF49ZopnnplL4JlnhmGYe4CABz3tZ/H/jnUgJiIZa9JpqakAHCMt+LcaBf7X+kUoiDUIg+eBeXQUGmO0NDtN+3i8ToyabGhvqcEH5aN4Zv1KzLpoqSrPSC1KjpbgbPMo3D4K+/bA7fJDpVNDLhwbOoouYzrWrlqClFA5bKZufLB3D7Y0afHlQsPYQcReKp0R6Tm5SEuIlUT2teCZZ4ZhGOZegZeqYi6BxTPDMMw9QMCH4e4q/PzD7ahq7Ee8fizozCuEcWfaMvzzi6uRJa3zfA18TtTXV2N7jRUPLZmDgosXtPR7pTWhveOVVa6CTKGEWq0C6XGnpR87d2/GW7tqkBV2YW0PpVqL6cvWYeWiOYi6xnqZBItnhmEY5loEAn743H4o1GMzxyTjfP7A2Ko71zRytw8Wz8wlsHhmGIa5FxDOg8uO7q5O9A2Onq8gKlQtdHEpyEmKRojyOtO9whlxOh0YdfgQFmqAVvXFa4v6fR6MDvagraMX7osEN+VfRyekITE+RpxL8MGrwOKZYRiGuToBuK2jaD86jISVmaBxYovNgh6zDZERMYi+ymLMXrcFfpkaKqVaiO1br655nWeGYRiGueeQQaHRIyUzD7PnzsO8ecFt7mxMSYu7vnAmZHKEaPWIjzT+XsKZkCtUiIxLxYzZcy+ch9jmzpmNzOTrC2eGYRiGuYKAH7beahw+dBD7dmzGW//yDnbsO4ATZadR39mDk43N6LK4gztfjANnS7fjSHkNbK6bWZaRuRlYPDMMwzCTEqpI6vJ44Q9OEPt9Xnjcbvg4IIthGIaZMPhg66nCgX37sO/oCbSFtuDo/j04drIcPSYHbHYbTFYr7G4fAsKOOWwm9LTU4+jRY9hfWoXSQyex90AZGjoGMGpxwB88KvPFYPHMMAzDTD4oVNvci5qOLjglreyHbagPbdXVGLW7cKV8DsA5ZINjVDw3rrYZhmEY5nYjU8CYPB1zihMRFR2NjLmZiEpOQ1rxVMRrAzC1VqP0ZBnqByzwukbRUncGZWfOorHVioL5j2L59HSYhvpRceI4TlV1wH0LB4gpFJzyrScTLJ4ZhmGYSUMg4EH36RJs+vgjfPDu7/DL37yF9z7ehF1Hy9Dc1o7O+nqYHO4rxbO7D8ffeQsff1aKfutVnmcYhmGY24Icap0eTmcTsmYuwdL585CfHo56YYtkahU0xnDExETBqPKhq70JJ8vKUdXYCrNpAIPtjWjr64HT2ofWukqcKjmN2ibzLZt9VqvV0jaZSmixeGYYhmEmDbQmtLW/Bw2N9ahp7oVneAD156rR0tMPq9MpHAwTRofNcLq88HvdMIvnWxsrsGf/HlSbu9DSdwZb9u7DufZ29A2ZpSqnDMMwDHM7kclVUCvVMA30orevHyNWF3SaEKhCdIjNyMesqcXIiAiB3e6Ey6cQLxC2zjyIzrZmtLR3YWh4BH65BiqvC6Pmq+VHfzEUCgWUSiWLZ4ZhGIa5L5GpkVA8BVPi4uCTqxGq1cOgiUZuUgaiQgLobKrEkSOn0D5ohccxivqyYzhxph5WWRwWPPU8nli/AEnhcrSU7cPBU41weFk8MwzDMLcXmSYCRYVLYO+pR01doxDQFkRYBtDR2AK9PAQRGiVkyhCkZhVj7vwZSJk1D8vWbcAzzzwjbU89vh5TdflYtGQBpmSFXXvpxi+A1+tl8cwwDMMw9ycyKGDC0bfdWPP8y3j5pWexYloGLGVt8AZ0SEjOxayZRYgzKjDY04zmznZ0tneivaEBZUePo7TkDJprm9DS0o/25nM42TkaPC7DMAzD3CbkSmhUatjNwxgaHEBfcz3KD+3Blu07cLiyHianT5g3BQxhUYgOVaGrsQrHjhzBkfPbfpyu6ocxOgaRRvUtE88kms1ms7TM4mSBxTPDMAwziZBBqY9C8XwFTh89jMNHSlDbPoSwrETodXpExqcgOTUBYVqVcAZ8UKgVUKvEy7we2CwWWCx2eKhCt1ILlUoGl5frljIMwzC3n8jUGXj+K3+Cb/zJn+CPv/41/MFXX8fTjz+MuNhQOLxCPAfxe1wY6e9GS3MjGhvHtwZ0DY3CfRtErs/n45lnhmEYhrlfURmTseqlQqjddthsNti8Vgy6OlDb2o1ATBoMGjVkCg3iM2ZgQVEYiovCsfKxdXj+xRfxIm3PPwB1mhDZc1ZgUVp48KgMwzAMc/tQ6yOQmpmD3Nzc81tBjvg/MQ4GlSK4F6DR6BGlVsBtGcXg4KC0DY3YoU4wQqul0eBbB1XaprznyYQsMJmGCj4nnZ2d+P73v49vfetbSEtLCz7KMAzD3NMEfDDV7MD//u/PYHN6IZPJIRe232PzIyVrDl782kvIjTNIYW2mql/j0z3H0OfPRZjOCDk96OrDzj4Nnnvpq3g6/9aKZwp927hxI/bs2YNvf/vbiIqKCj7DMAzDMJfi83mlCCiVUgWVYiwY2+d1wWq1w+3xSv9LCLUnV4TAGKYX+966udPe3l781V/9Fb773e8iKSkp+Oj9Dc88MwzDMJMLWjMz9wH88/ffxA9/+EP8+7//G/71zTfxt3/yZSxI1wox7buwFJUQ2lbzCHq6u6QBVWnr6MLgqBVeH489MwzDMHcPhUIJnUZ9XjgTCqUGYeERiImJubDFxiAqKvSWCmeC1nmebPOwLJ4ZhmGYSYdMOBehoUYYjeNbKCJiIhGdEA+tShncC1CFJiFEFYrhnk40NtSjvl5sbQMIDwlFXOitDX9jGIZhmHsJEs6jo6NS3vNkgcUzwzAMw0CBqIwCzFmzGikR+vPGUZe2Bq//9S/x27c/xHvvvTe2vf8xNv3rt7Ay1RDci2EYhmEmJ5RuxAXDGIZhGIZhGIZhGIY5D4tnhmEYhmEYhmEY5nNBlbYnW7VtFs8MwzAMwzAMwzDM50KtViMkJARe70WVve9zWDwzDMMwDMMwDMMwnxvKdzaZTMH/7n9YPDMMwzAMwzAMwzBfCLfbHfzr/ofF82VQxbjxcuu0dtnF0OMulyv4H8MwDMP8/pDd8Xg8V61WSo9NtkqmDMMwzMRl3C5dDXrufg/hZvF8GT09PaiqqsLQ0JDUAEhA02a1WnH27Fk0NTUF92QYhmGY3x9yNGpra6U1pMdH78nu0IDt4OCg9LjFYpEeZxiGYZi7id1ul/RQf3+/ZKtUKpX02+l0orGxEWfOnJEGhO9XFP8oCP496SGx3NHRgU8++QTnzp2Dw+FARUUFYmNjceDAAezfvx9FRUVISEgIvoJhGIZhfj9oBL+0tBS//vWvJeeDBnFbW1uh1+uxZ88eyS7l5uZK/5ODwkw+aCCFHFaz2SxFwJFjKpfLpY3bBMMwdxIazP30009x9OhRqf85duwYUlJSpMnHjRs3wmAwIC8vD0qlMviK+wuZEIwcC3YRNpsNP/rRj/Cb3/wGRqMRIyMjiI+PlxyZDRs24Lvf/a5UVY5hGIZhbhU0iv/SSy9JNicqKkqKdtJqtZKw/ou/+As89thj0Gg0wb2ZyQLd/+HhYckpJT+EnFZyTGmQJTU1FQUFBdLvybZUDMMwdw8awPvggw8kTRQdHY3Ozk5kZ2ejq6tL+k06KikpKbj3/QfPPF8GhR5Q2XUaTTlx4oQUMtfS0iLNNn/zm9+UGgWP8jIMwzC3krCwMEksk0NCIolSh0hIP/TQQ3j11Vel55nJBc02U/QbtQnyQ6h90KC+TqeTRDQJ6tOnT0t+Cw3y36+zPAzDTCyor4mJiZF00qFDh6QBvra2Nmmw7+tf/zoWL14sRcXcr7B4vgwSxjSqS6K5rKxMmomm0f6nnnoKL774Is86MwzDMLcccjQyMjJw/PhxaRaanJCcnBzJEZk2bRoP2k4iKCCQwrPJKd25c6c0q7xq1SosW7ZMagsUDpmfny9FKNAAC+UY0m9KMSOBzW2FYZjbDaURkV6ikG3qf6jfmTt3rmSzSFjfz3DBsKsQGhqKNWvWYOrUqdLoCoVEPf/88zzyzzAMw9w2yPY8++yzUhgcDdTOnz8fM2fOvK9H8JkroVllynU/deqUVGfl5ZdflpzSiIgIaTCfNvqbHqNQf2onDQ0N2LJlC3p7e4NHYRiGuX2QXVqxYoUUHUXRL2Sz1q9fL+U+3++wRb4K1CAKCwulRkAjuZTrPGvWrOCzDMMwDHN7WLlyJWbMmCEJ6EceeeS+H8FnLoWKgpFwptU9Fi5ciLVr10rO6NVCsmlGmtrJokWL8OCDD6Kvr0+aqR4dHQ3uwTAMc/ug2ecnnnhCSm1NTk6WbNZkiNC9IwXDKG+HRlIpFJqKoFA42r1AdXU1fvGLX+CVV16RQqXuBShsgvKhyKDSyPS9NGNB7cRkMknthMLluZbd7YPaCXV61E4oouJeLDZDBXMoL5QcRV5//fZCjju1E2ov1L/cK2Gh1C7Gc4dpCah7oU+hKsrvvvuutNTHt771LSmX9V643tRGKB+X2ghXBf/8UNukvMG9e/dKq30sWLBAyhukaISbgfpDajMkvMmRJdF9r7Sd+wHya8m/HRgYkH6TP8PcHsYjL2hgkWY87yeo/6d+gDb6Tt8LNots7JtvvimlkXzjG9+Q6kZNdEgbkZ2ic/4iPvBtFc90aBoJPXjwoFTUgjoTyse5VwQdOVvUEdLs873yBaVrTl84utYU7vXAAw9Io9YT2YCS0aGlWchpqKyslM6VRq7uJeF/r0HXnNoJQekJNNuVmJh4TzhadO40K7Nr1y50d3dLbeVe6KzvZWgdYlq6j4wM5V3Onj1bynWaqFD/R4OfJCSoCig5W/eSk0UDQuSAkwi6Vwa26JrTrCmJPQrlmzNnjuScMDcHOaCfffaZFH5N/TGFZNO1/Dx9Mn1HqW+kdh8XF4dHH32UIxfuADQ5RPnpVGiWBuxogJH9l9sH+ebUR1KNiMcff1yqDXGvQ/0nFQXct2+f1AdQv09+zb3ik5EPT/ouMjIy+OjEhrQS2Sv6TbaK+lzSejfLbRPP1BBqamrw0UcfSY2cDAE1cHK47sVZrnsFup1kQNvb26V1Q6mToTAKyomaiAKDnHIaWKG1telvaidZWVmS08XG5/ZBnR3N7jc3N0vthGaNKPSG8iuvFh44EaC2TZEJ27dvlwbkyHCSiKMO714xMvcq46PhNLNF/ToNuFC/MhEHXKiN0MAKbWlpaVKfQiKUBDRz+6D+m2w9DYBSO6F1qcmx5WWUrg/1axQZ8eGHH0q2kK7ZkiVLvnCEB9l8EtBbt26VbOm6deukQS/uH289dO/I16IIRfpNg0ZUyI0iMLjN3z5ogILs0ZEjR1BXVycNElGkBX1n7kVIxNHgy6ZNm6QZdUrXoBDou1v8TyZ+AuLnGtB5XSwfL///FkCf/eYl6tj50nnczGv8fhLPYz4wVQwn/4B8munTp9+UVrot4pk6b1pegYpX0CgEVYkkR5dOjgXR7YduKTm7NCu3f/9+yZBSp045UROpc6EOkEZqSQylp6efnyWndsKG/vZD7YTuARn93bt3o6OjQzJAFC44EYUGzcxs3rxZ6uxoMIjqEJChISeF28vthwZEaTaUxDPlVVJf8vTTT0vf3YnSr9MMEImG2tpaaTSZBoPIBtGAELeR28/4oFx9fb3URui6P/PMM5L95+t/dShNiQaPSThToVLyl242VPtaUL9OxcbIB6O1VqluC/3me3BrIZv585//XBrsp3uXmZnJUXN3APJdqK+hgVJq55TmQj4BpVjea9EuNNlFwrmkpERas50+B0WNUKTUXfm++r2wm/sxbPchNCoZYZorz8HvNqO7vQm6uFxEGMT1DrjQfaoB/uwcJEcK/z243++Dz2VFd1stlMkzkaC7wfcpIHyT4Xa02OTQjnqgjolFfGwo1IprnInY32EdwojVgpDQRAz1dEr2ipaIJAFNgxc38oFv+VJV1KhprS8aQaEG8Nxzz0kjz+PCmRoDb7d3o+tMTguNNtO61GRIaWSFYvsnykwRdXwUVkliiGYoyAkn404jPtxO7sxG15k6aBIXFBVCs0bl5eVSnhyF+tE+EwUSbocPH5aWZKGZFDIwNLpP7Zzby53ZaJCCRsJpFpfaCM3+0+g/tR16/G5D/RwNAtHALQ0UUr5oeHg4t5E7uNF1JvFA7YNsDdkdEockKu7VWaHbyfhgDznOTz75pCScb4XzT22e7gHln1MId1dXl+QLcBj9rYOEG+V50kDH66+/LkW5sJ97Zza6xmSPqE+h605Lt5HmoMhWauf3CjTJRRNIlLJIEVKrV68+n8d9J9oRAnac/ezX+PZ3/x8+K6mDOyYfRbEyDLScxKmGdqjE/3GGscmJize/rRVHtrwFf+x0xEWGQeYz4/B33kF71jTkJeuhFPv4nCacPfgh/u3NH+KtDz7Bp59+Km07j1XAGxqHlMQ4hCjpeMBIewV++cP/wC/f3w9lfBYyEiPgNXfj0KafYjTjAeSEjQ0kjG+ukU4cfv/X+L8//B+8t+MAumzCPzGfw7aWQYwcqMGgJgYpaZHQqhSQw4+GA+/j/3zn37HjaBlSpsxFrF6G4e4KVDWdRVjqDGTERUttiL7TpEto1p/00vW45eKZZp1pJIgENK2NfK/kUd6P0HUnR4buAeVu00YzABPB0aXZCXKsqPOgdjLRxNpkgq47GSFytGh9WRKq5OySAzYRoAE5ygGikUEyjFRZlto1t5e7Axl1+r6ScaG18GnwhRz1uxmmSG2EZjspTYjaCDkh1Ka5jdwdqI1QVAjZGsrho4FciiriUNYxqL2So0YzzjSATCkzNOBD/dqtgq41DXTR95Peg0LDxwcx+Hvx+0GD/9u2bZME2//6X/+LZ/XvItTOqY0TFMVIxX1pYH2iQ30A1eP4+OOPpX6S+oAwoxadVUfww39/E//1o7dwrluOrLxUGDVC0JbvwQtf+wt8+MFu9MtTMbUgHqqAH5aBFuz56Nf4wbffxM/f/wAH67oQEpOCpAgtBkr34T/+/tv495/+HO+8/x4+eHcbRhSJyMmMF8LVg+rdm/DpbiuWv7QGBdEBVO46gAF/FGINZvSMuhGVVIg4/fisrw89lfvxP9/9Pv7vz9/HvhM12C9E/0efbkFHTBYiK4TvOHsOCpJ0kHp5YQM0+jAkp+dh2sxZUord7Kl5MOr9cOlikZiQCKMacJnqsOOdw1CmF2H2tFjU7joDZWEB4pQ21FcegapwDXKMF/uifth6+9BW3o+ItOlYtnYJpualQ21vRaVVidBuOzQp6chMjxLiWQZz7Ua8/W43Fjz+ELJDzSgrHUZyURpktm70jQwjJmUawjVjEwNks6qqqqQweoqou97s8y0XzzTCSaP/lPdBYXNsLO8+NJtLI9wkQMjhpYiAu93RU6jw8ePHpaJmU6ZMkZwt5u5CnQc5WJRDRG2ExPREcAhoQG7Hjh3o7+/Hww8/PCHa72SHrj8ZGupTKNf1RobmdkOzzseOHZN+Uxsh0cDcXaiNkFNLgxoU1UIRCjzzOcb4jDPVm6DBYxLOt2NQm+7BeCQRCT1aA3p8Bpr70C8OpRD99re/le4bFRria3l3oetPbZqi0+hvWmp2ot8Tmjii+hAU+k/rJNPMp6O/Ctu3HUNU/jI888QDsNVXYigiBQlox8/f2ocH//BP8cySHJzdsweurGmIdXRizzsbcdaZjuffeBkbHlqCKPcIGmt6oI+NR6CtE33mODz8yvN47tnHsGK2Foc3tSG5OAfRWidOlvwSgcVv4PmlU5GeEosoXxmGvFYpmmLY4kFU8sXiWYYQYwyy87IgV2sRmZCO9GlL8dXXXsSi3Fh07yyHT2i+/LgQyMWlD/j9UGnDEJeYJM3k0pYUFw5FYAQBbSjiY+JhEOK278RvUe8PwaJVazGzMA9edx129cVifrwXjVXHob6KeHaZzLD0BpAyZQZmLshDpEEDa18NzpiVCOtzICQ1A1kZQjzLHDjx7g+AB97AI8tmISU1DU3dtUK8JyNWOYR+YZdIPIepxz4j9cHkZ47PPl9vUu+WKhYaSaHZTZp1pg76Xqpuej9DAxgUOk/3h+4NfWnvJjRqSw2UhBrNhPMAy8SAZpqpwAyF4lI7ofYyEaAZGspFITE/0SvHTybI0JBoptoKFElyN6GRYupT6HyoDTMTAwqjpMFREov0Paa+fzJDfSpdC5qNP3DgAB577DFpsOd2hrSTH0YFyL75zW9KS2Bt3LhRsr0TpX+/F6G+hqoL0/1je3T3oXtA/gEJUJo5pO/YRIcmBWg1Iip4WlxcLD2m1MVj6bp1ePjB+SjMzUKBYRjmQRuGOqswGBOKVVNzkVtUhPlT2vH+8Wo0dbWhXJOGp19+DDMLspCZlY8VK9Zjw/KFSA6j6DwFQvRGRERGSRNn0WFaZMxOhTFUCFyVFtGGPAwcOYtu0zB6u1tw/IQdZmcGtIqr9Q0UMu3GmbJm9Hr1SBG+e6y8Bz8+IHxFEp+BOvzoH/8U//O7M8KH7MDm//wG3nj1FSkP/eWXX8ZLYnv5y3+Iv/nfb+Lf/v5v8f9+8TvU9JgwOiLOz5gAg04tRLkGEaFqHPnXP8NXvv4XeO9YP4S+voyxBwJCRPsDPgy3lOPXP/hH/M13foOqpkE6S3Ge0i6ij3PB1JeKtKQoKIWiV6tDEO/QwtFlvmohNJoAIP+BBuFpUIPu0bW4peKZZiAov4k6ZRpx5k5l4jC+rAzNANB9uptQWDA5UtQwKSeRmRjQ95VmE6njIAF9t9sJQX0JFakaD0GciBXjJzNkkEk43+0BORLPJMzGc5x/f4Rp9njhdftEGww+dB0CAT88Tje8Pi9c4lr4bvCigDD6HnF8qvh5Pei4XrcTHq84j+Bjtww6tjhfr+/Ggjbg80j99aXnIK6ReL1b9BPjH8Mv+nbqN/wXfX6KFCHulTVLbxf02alfpeWoSMBSccalS5fekfQYiuyiAouvvfaaVJzo/ffflxx3FtBfDBp8oBB7EmzMxIB8BMp/Jltwr4hnKhZGs7zjBQLVoXFIy8hDhE6J7sYKHHMloiAzGir4kG2MEAJQ+GkKDQzRuWgxW2Bz9iAyPRQxRgV8jlF0NFSior4aHY4ROISNkcsdqCvbiH//3v/GX/3lX+Jv/s8vsae1DTa/DzKlHtNXPYc5oefw/b/6W3z/Z7vhnfkM1q+Yjmslj/idFrjkCiydvxDr167DYw/Mg2FvB0xO4SsqkrD66dewekmG0BtRmPXwq/jK66/j1ZdfwIpVixGaNQWzH3kFf/qt7+Dv/vof8PzqJUgO14nvkQ0O5yhcwtb6hZ2xCL2atvoF/NHrr2BxXhi81+2iZDDEZmDFhmfw4pPLkRIXeqmNkimg0VthtY3ZHj8VQ9P6ERJ+7aJm5NNQFMO4RrkWt1Q8kygiJ4ocXJ5NnFiMG2hybO62wSQnlwQaGfSJklfLjDH+3aVOY6LMElGbpXO6m2HBzNWh7y/1+3e7rdA50ODPpf1JAG6rCT0d7dL6mS0trWgfsV9VhPqFM+ES4s7t8QUfcWOgrh1tFV3CsF82iCScEptpEO1trdJxO3sGYLOMonZvGVq7WlBSVYFu6/hrAvA4TBjobkVbdz8sDhpk8MNt6UFlRQsGTcKo015+D0YGetAqnafYWlvROWiB0zYqzmE3ajr64JFOXBzPZUd/b3fwM41vrejqHYLzOiI7QI6DzQJL8PN4nWa0d4jXDljGXhPwwjrYj07x3q3is7W2iuc6+2ATTo2lvw6nz5yGZfzyEMLRsQ62oLKpDSNBH8My0Ie2piaYnRecjvHvLd2jyYzZbJZynGnGmQpkUl7+rcxxvhFkb6lexNe//nVpBY4PPvhACj9mPj9kH29HmD3zxaH+n/oa6mcmwsD/jSCbSdvlPrDXZUJz+SF8vPEYIjJnIC8xUirAZfYIn0wyFuLzuSwwqFRQKrRw27xwCYVJ/Xl38zmU7PsM73z4Pg5Vt8PmCUFW0YN4/Wt/hr/+m7/BX//d32Gavw313WOTnNrIBCz/0uv4y7/5a/z1N/8IL62dhtgIKs41di6Xo9RFIz8uAhWl+/HWb3+N3+44g4RnihEdohIfSI/sqbOQmxkh7oMeCRkFiFP70NnYhK6uXmHzRjDQ3oja5hYEwuORmZWBMJ0aMTk58Axb0VTTiMbaOrTX27DusYewYO4spMeEXMOeCRsqhHx/Txe6B0zQRicgPy8V4aFkawLis43tJVPokTU3Cg2HylBf34z62nPotfkRmxw2tsNVGC/WJg0CX8evuaXimaAbwjPOE4/xe0L3526LZ2L8HLitTEwmQhthJj4T9/sbgMs6hOr92/Dz//gh/uX738f3f/Av+MHGfWjtHoH3EpsYgMNiQuWZSjR0jApN6IbdOoy20/VoPNkBu+MyR8w9irI9b+Pb3/8XfF8c9yfvbka32YKq7SfQ1NGAwxWn0WkRIjkgDLxtCHXlW/Cbn30Pb/7Pb7D7VB1MDjdc5k6cPt2IgRGH5BB5Ld1477f/he/QeYrtB2/+O366tRwDo8NoPrUVVa3dcNE5C8dpqLsRGz/4Nf7lBz+Q9qXtu9/5Ln74Hx+irs+Eq0tUP1y2PpSW7MPemkHxn3C2HKNCpDegQbyGvu1+zyjObf8EP/3Bd/H3f/53+Id/+A6+++N3caatFz1N5Th28gQs4hwCQmRbervQVFeDsxUl2FtSior6JrT1DKCnoxMtDfXiMzrH3paR+lKK+KKcYyp6OB6qfTfEFw2O0jIsVB2aqtLTDDiFIE+UgdJ7BbaPzK2A7OfFNtTvsQvhvBe/e7cEyoy5WDEvB1qVHJrQCPSYhtE3YoZpZAh9nUNYmZWMWGMK1I09qKrthlMRgcKF6/HkI6tQlBoGhbAEfr8MCqUa+rAIREZFISY2GfkJASHGvVI17PaWBmEPB2BzOmEX4ranTQjYtk4M2lxXte1ytQG5c4tQlJKGlIRk5E5djD/YMANRGvEeMeEIUZBlGUMmV0IXFoVEse+MabPw1KolmJ8VCcdoHeo6WmEOjq+Gpq3E9PRkHNv0Dv7v/7yNEV0OlqXppe+Y76qRWeIzqQGTpRobP/ox3vyXN/Gb9zejqWtI7B/cZRyZEumLv45Mdx1+9O//il+/fQJ5xfNRGP379723XDwzzM3AoplhmNtGwIOeuqMoaRrAjFXr8KXXvowvv/oiVsp24Ce/PYwRSYkGESLXOjqAU6fPolII64HONpQdLsGZxnZQZlSAqp9cjMuKUbcXacufxSuvfhlPPrwUEXLhkKhVUMgVUCkUUsEUv9eJ9rqzOFJvQ+zCZ7F+XhTaqo/jTH0vvAEFlEq52G/s2D6XGVV+A1Y//yV8+ctfxmtfehlPLs5DqFoujqsRx5UHw8zk0IVGYopwRpavWC6t30/bgqIChHSNwmR3XUM8C4HutqBDOEtNvdYxB0e8t0KphDIYJSZThiJ70UpsePZhpNvCUDDlQTyxJB+mujKcOF0nnB05aNnMgPhcHccP4sN33sXvPj6Aswf24pPfvo3tRyvR53DD47BiaGBUOGTe847UZIZCtakKPBU9fP7556XlqO5mgUyyvVOnTsWrr74qFe389a9/LVX9vVOQQLDaRmD3UBScH04HhZ86heMr/haPd3a0ob2jF3bX2KCVz+1Ef1cH2to7MGx1gGU+c7/iGunA8b0VsKj0CJePoupUKao6hqFPmI5loWH4bPc+HNhXglrTfKyemork1AwsKTagYt8u7Np9APv378P+U+cw5DUgKjwCOr0cLkcPzp08Kl63D3v37UWzcybyYmPgHmnC7q0f47333ruwvf8BPtlxAFWdw8I2CdsXPK8LCEFL0U1lXiQl5qIoLQJDvV1oE/vHProA+Yna86JSodEhZcpsrH3iCamS+GMbNmDDhvVYNi8XkaGK86k+coUW+UtW4LlXhe17/TU89cRCROnG0vOo6NiV41Qy6GKSsfC55/HGn39N2PVX8chDS5AYZZD6k8tfo9DFYPnLL+Arr38Zr7zxPBbOyxA2mgxZQEov+qI2isUzwzAMc98RkCmgCAmBQiGXjKoftC5oKDR+ymMOmkzxuMPSj9qKaoz0mNHaW4vqnkFYKJ/M4YDnqiPfgMYQgayi2ZgzqxgxShPOlVWi2+4IPjuG1+NCm8kPVcxsbFixEquWPYjZ+hE4+xthG4vBvoA4VwoXUyjGQvkM0UnIDPei9txZNIvz8gZozU+xn98L83A3quprUNssREZ7u7T1jJggjzVCp1Fd3aiTo+Bwwt3ZB/HBxvLIxOayjqK5tgo1jR2wuBWISs9EbJwB8hQ7oNUgPSEKfqcdFqsd4xHtcqUWKfPnY+aUaUhISkeOeE1BRj5m5+YgRuNFa20ljh2rROeQbdILHZpxfvfdd6W1XKloDq1RPxHCfSlUlNbK/+pXvyqF/b/11ltSDvSdwDXSiPKyAyhvHoDTaUNj+Smp/ZlNvSg/dRCffvoxPvhgIw6e6pCc2+6zJdjy4YfSAMTu/SXot7iCR2KY+wy5FtnFUzGjIBYynx0mi0UaRFLpE/HQow8g2meD3R+CpY+sRG64GmpjNKY88BDWrsiFymWBxeZCeOosPP7oE1iYl4T4/Ezkz06CWuEWNs0sjqXH0gcXIz02FNqYAjz69JfwxhtvXNi+8mW8/MQ6zM3LgF4fJq3DfCn0vw82aw327dyEj8T38kPpu/kJdpYeQX2/Db6rm0yJgEwJjTYCRp0BwQLXEkptqLCnUzBrprCn4VrpXeQKNYzCDoZeWTFMKnYWk5qN6XPmYt68uSjOF7YnJgHxYeGIjI9GWKiw+3IqHUbIoI9KEvvOwfTiNOiUYwOISo0BoaERl5zH54HFM8MwDHPfQLm9ViH2lPoERA50YMvv3sFvfvNb/PoXP8J3S5WY+UA+fFYrXD6/EI/DqDhehhN1FsxcMgNZum60+RSY+vCjWLd0IdKNwTUrL4PEt9DgCLhMaDi9C1t370HtqJmscnAPoXPFj0MrLHWkHqHil1KtQ2i0E36lWQjRQNCwX0RvI3Z+uhmfbd6MI5WNGO5pxL69+3CyfgAuv2Jsf78H/YPdODcwApc2HFFR0dKWkJmB6Q8KMRt29fP1e8XrOgbQPeSGRt6PYSflXgdgG+zC6WMHcLS8BoMmK/pb63C4vANJq+Yg2lqHth4/FqzegCcfWYHUCMVYWJz4jDKZFS1He6E1xiMpPg4qiwODTX0IKFQIi4xBUnIsQnWqKz/jJIHaB4VDU1j0iRMnpJkXWo7mTuY43wgarJk7dy6+8pWvSOv7v/3229IqC7c7N10u86OnoQV1Z5swOtiEmpp2DI840FVeiiOnmwC1HirfKHbu2Id2uw812z5Ch4mKi4bB3dOGIdOlg1QMc7+gjU7FwseexIuvfkkabHv5+WexrDARapUC+sQcvPTSS3jxxSewoDgBKgpvktFaylEomLUYT7z4Il5+6UU8vmYlitLjoVcL8ZmShRVPPImXvhSseP3Sk5g7JQkalVwIUB1i4hKQmJh4yZYQn4TUzBmYPmUGkgxX9uAqfSRmfmklFi6aheKCAhSc3/KRGK65rqhUqI3Iyl2Imdk5CLtB7VeVIQYzVzyHoohLc8KvikyF6Ix5eGTWbCx+ZAlmF8VBfxXRPY5MrkJ4bC4K8xcgQv3F6nOxeGYYhmHuG3xuG2rPncHhU9XotHuhMEYiLj4B8THhUAWMGKk9gT27TqPf4YXH6YTVpcesZbOQHKlFjMIIb2cNjh8vR4fbCmWiQYiMq5hJ4bQInQi5JgKFCx7DU4+uR3FEGKmm4A4kEhQwOtzw9Q2h10k5x0Po79VC5ouGhmbDg/tJ0OuS8vHYC8/h+eeew6rZBYhOKcC6dWuxqCBeCN5gITDxvjqdEQmR4QgVzofbZYbT44I/4IfdPopRm/eKvC+adR9ta8TZygHErHxYOESDqDxbB5OXKpWmYv6K1Vg5bwoi5VZUVzTCIU/DyuXPYc1Dc2BubURLtxkur/uSPHEFOV5psYgIM0CnNyA8JhoRkaHQhwpHbsY8LJxXjMQI3aR1MGjVERLONTU10owOrQc8UYuoTp8+XUoVoOUAKXSTft9O1JHZyEpNgTbQg96maijDdUhM1aL1+FkMtJsgE61Gqw+B0teAJnsA+uhIaHQy2ANKhOfkwqjjJVAZ5rYhV0BjiEJMVKwQ4FcKUJkiBAlTZmPlw2ux/pFH8Mj4JmzV9ORQKbXnWsgUaoRFJCA2PFzYwOCD10CuCkFMci4iNTdhRYRdDDHGIyM2FomZSYiN0o0NLlwLsb9aG45IcS4h1zvh68DimWEY5m4hRJPPK0ScxzNW3VGqFOoZ+1+ooIu02Ni+lzzAXA2ZMP4GoxEGpQsO4WiHhmvEtfMBSiPmhJgxNKpCVEyYJGB1EXGYv3w2iuL8qCkpwckzrRhs70bD6RKUnD6LrlH7lWFoMhnc5gGcLdmNHbv341TdKLQJyYjVXTqrqFSGIC06BHJTOTZu24hN+/ahyp+A8MQsXOn/i3trM6Ons0vKP62vPIkjZdUIRMQjOVYPpWysLVAoekxcOhblFyIvWqhnVyu8SjcMERGIMIZCRXlql7URr7kD5Ue2w6pNwGOr5mNKZBj6j5fiVFkPAtpQJGdkITM1HgadDgk5RZibkwq1V47I/HmYv3g2oowhQtBQOPn4jKRwPEITUbwiDkM9TahtqEP7aCda++twrrYJDkUo1JdVkJ0s0LUfGBiQQrVJhD755JNSePTVZpxp3wv3iv6mfD0vLOZBNHUPwnR5oboggevFRYrjjC8XRjnEtCflqHf196Jz1Ab3VdIQKISbZqApB5rCzEn0UyrA5e3oViGT6xCZmAxZwIHTlQ4oVfGINirhtDsQrjMiXjjAyenZWLlqDXL0CuSvfRrTCzJg7anFnqMlKG3iCuEMczUo33fcnzjvU4jvscU8jObeYbjOryZxJQHRN5xfOjHghdk6iu5RM1zB/oaWVxz3TcY36mMolairpxW91kuXdfJ63BgaHILZNvZ4wGXB6HAPhqzOq4d2i/emc7g61K9d+Fy0SctC2k1o7e5Hv9kl9XV3EhbPDMMw18DvtaO/uwNdXUMwWc2wuz9HSGPAA+uIGU7XNQonCWfZOtiN0i2b8emnG7Hv4CGcPnEEuzd/go83bcXek7UYuCi/zzrSgcP17XBexwAyFBpmQH7hNCycPQVZGalIiI9DTEwMYmKFEI3TQdYThwUrpiFWq4RcqYJeL8S12w7LoLi/didcDhdcThtG+0dgGrQJI33Z3VOHIiE2AZpBIRyrq1Fd24JB+5XGW67SICE7D3OK4qHor0e7WYOc2XOQlx0jrdd5MYqQCMyLD0dvXS2q6Zhiq61vQK/lorWR/S70dTag9FQFuvtNwoEQAsknkwq4eNxu2IZ7UXnsBBpbh6Ww8HH8bgsU4hrMWDkDCcYwJGfNxPTcTKiFY0T7jR1fBqU+EnmFKQjp70BtVRdsXg1SivKQkWBEaFQaCnLzoQ+et1yuQmhYGOLEcWNjo4RYdqKzvQFV52rQ0t4LxyRto729vVJVbRKfVFGbZnUpPPpyfD43Bvq70doxLP3vsVvR29SEnt5utLfVYvuJWrQNXRme7LWPoGLnCTQMXyXvl6IPRntxtnQvNm/ejKNllRi0OOB3jqC0qhwlrf2wuS9vpWNQFe5p06ZJYp+WYaK1qJubm29PFW6ZHBFhMVB1d6Gs0wZnVCoMumik5yQgKjoWGZm5yMtKR6L4/uhDRL/XM4SopFwsnj0dEbJBtA8Gl1ZjGOYiPBhqrsaBjz7GJx9/InyKT7Fz/1F0DpvQ2VWPneWNMElLJV6J3+tCd10zKk/2gKRuwOdER28LTjR3wOQSfTmJ6Z4qHNm7GR9/+B7e/+BDfLJxO8rruuHxulFWvh/lPVZ6JTxOGgRuQX1dFQ4dOoqTFQ1o7+zBSE8TmutOob53FJ7Lu5WAGz2VVTh9rAUWer+LEfbJbe1HZclnePfDT6XPtXHLNhypqEVHVzP2n6xERZfpjtfXYPHMMAxzDawtZ7D5dx9h9/bjOFCyC+Udn6OTdvfh2Ed7UdtMSyhc6e7RSK51oBcNJbWwUfVnjxO9jU3o7O6DX6mUCl1dqEofgLm/EVur2+EQYom5ERSSnI0FS1ZhzZo1wW01HlhSBFk1ibuL76IPTvMw+ptHhUUcK9ylUmkRmRqGqDQtFJcXTVEbUTj3YbzyzAY8/vgGbFi/DDkRIfC6PNLsrMfno0F0gQxqbQwKi1dhwyPP4KmH12NZXuZYjpUQOl6vX5oVIJSGWKxd+xSef+pxbJCqkm7AI2seRHF8qBDH7rERfoFMCA+aKaRNJQR3TPIsJEYmQasae4w2quB98RmrwtIxc/EjyEsKl9pTSHgM8pfOx4w5SVCLz35JNAMN6PR14+zJEzhy6JBwfsa28vphuDTRkAX3pdn9iLgsLFvxgHRt165dj8ce24DF0wughw1u79WdtPsZCtUm0UoCmkTonDlzJFF6Neie9nS2oqGxXxKCHqsJ7dVVaOvswqjNhK5Bk+gTLh10s/dU49iRHdiyUziQuw/jVH07LvYzPU4LmhsqUdXSKc02tzXXoLqpAzanC4OjwxiwOoNrhV8dajtUhZuKmlHeMy2rdbtCuEMjQqEIjYAqIhoJCUaEqA3IWbYYEYYh7Nv1mXCOd6Bl0CztazX1YO+u7Sipakd4+jQsKki4pH0zDEOI73ljI5pLm+HyyoL2gFZ+kMFhF4J2xCJs09W8lwB8bgc6ymtxYn+HJJ4pUsvutGLQQoUig52GsD3kk7iGqlDf3y+l8nQ1n8PRI0dwvKIGQyTMhX2wDjZi/66N2LpzD06WncSRAzuxY+dB1NDqFaJvs1GV/bEjSvg9JtSfO4b9+zZh4+6d2HW8DD2Oi2ex/cI+d6Ou/jCa3RfsHBUE87ps6B0awYjdc8kx7wQsnhmGYS5HGA9TdyV+/j9v4fCZHigi5ehuOIuWIQssw+0o3fcB3n//A2w9dAJto074PDa0lJdi24cf4NOjFegwOeD3mtBwsho9A2Y4HX3Yv38P6voswTcgAlIIpk6biFmLl2HO1CmICg1HcvYULF21HAunZCJSf2HWyi/eo+vMYXwi3mN8aYn33/8Qmw+dgZlnoy+FcqBCo5CSloHs7OzgloWsnCJMW5oOrXACLiCHSquHPkoFp90Gq9UqFRxz+q1wKyhs+zKHQ6aAPiwG6RlZY8fNSEZMRDhSpucgLioBBWnivoWMhy3LhMgNR2xSJjISYxCqoceFY6ONREZmPIx6tSQEqIBJRGwSMrOCxxRbZnoaYiMiEZc5EykxEVAq1IhKyMKipSuk4lMPrV6Ddes3YP3adVhD/4vtgVXzkJkSJpycC/KC1uY0GoRQGX9IOFMqnQ5h8bFIkCqU6s6LEUkUp0dD4elE2bED2LtnD/aIbf+hYyht7BaOz/kdEWKIFNcg8/z50pZXVICszFToNZMnL5Vm7qk42O9+9zup4NYDDzyAGTNmXLc4GIVouz1u2Owu2O2irYnN7RCbW1xguXBSqVJscODMNtCKI3u3YPeRQyjvsGPOY+sxz9iPIwf3YOPW7Thc2w+vOAdam7ypdwCqjHlY+cBK5EdFY6ipH32DVPU8QLf9hqKTxH5+fr7UlmgGesuWLZKAvrUz0BSe6YEmJRqFs7KREmWAUpycMaUIyx9ei1UrV2Dp8pWYs2gOwkU7S5uzHKvFNV1G7X7JCkxNDg8eh2GYC/iFjyBDRHgaZs9ZgMWLl2LezKmIELbIS6O556tPXwkN+o6YB9E6MorxZBHam8LAXS6PeL0chpgczJw9H/HhOgwEopA3pRAySxsOHTqI2rYR6rYk26I1ChuYV4Qk4UOFqBQI0aqFDctDUlw4HAPCrpQcRXVbr+j3rGgoP4adu3dhb+k5KAumY8WqFPTUHpcG0D7bdQIDVjI45Ce5YB7pR0/PEEaGRzA8OALzqAUer18S9NdLb75dsHhmGIa5HNEZ+zxODPVbodHFITlDiBefDy5LL2rKt+NYdRuG+1tw+uh2HCwpQ9PZ/Th1fB9aevrRXHkQ1Y1NsHpoJjIAv7kL297ZhMNV3XBeNmscEEbLbhtFb3c3egcGYbFaMDrUj67ObmEoRmA/v1auDGEx2VibmwCvwwaTyXR+s9gcVxSJYq4GicYkzH5hqrR+8jgkXKPTp+Kxr72Gl1+maqYvSttzzzyJ+dMKEBpyYyGoCYvGtEcXIictDytnzkGa8XqvkYn9UzBnTi7iIrXXMfwyqHVRyJ63AdOykqEWOypVauj1BhgM19p0UmXWm/EllNpwIXRzkRcffmF/mQrxM+fi8ZeexQsvPItnnnnmwrZ0BiI01z9yeEISsoT4itBOnKrStxta4olmnIeGhqRZeAp/vlFVbZrB95j7UX5oM371y1/iN+9+iAPlrTC5L7t3fjdG+1tRX1+PIUUM0hIT4W60QBMRj7RwJdqb6tDY1gWTUzi4or8KCNc3Ki4RYeFRiDco0F22D797610cPlEnnGCfJKBvBAnozMxMLF++XMot3Lp1q7Sc1a0S0AGfDc0NtRi2uDElKx6xhrGBJplCg9jkPOGgz8Wc2TORHBcpFR8yRCZixqw5mDdnFgpT46G9POeBYRgBpfBY0FBXgk0bP8LmbcdQV1uHEiFEt209KPonK00MX4l4zGMfxbDpHMxGK0xW4aPI5PDbTWgo2Y8tnx1BXZsZAZkfg8316OzTItRWh7LOXiRNXYonnnwScwsTxHGocxE2VqOF2tYEjyYaqalpiI9SQe5vgU8pE789cDjscLm9cNiG0NVSj4YOM4yRqdJAbkxErLChqcBAK6rrGtExLM5ZyFSNMQmFBcuRpTCjp7UJA2ZLsD+62ge6M3AvxDAMcwVyGOMzsHTaVBTnzEROHC3AH4BCZUBy5hwsmrcYKXGhkI32w9LSjJHuFrT3dcMRloZFcxegMDlWKkjldfdjx+/ewal2DdaveRA5MaHB4wsoDEqrhsPXju0fvYuN+w6i2zqElorDePcXv8GHG0vR1muX8q67G0pwsqIeKrkaWiFMyDmnTaNRw2/qwvFjJagdtF/dODLnoUqhxoRQKC9RrHIhUsORmpuPouJiFAe3woICJMVFQ3MTzjrlTofGhkOn1SHSeLX1MS9GOBHKEISF6SWhez1kChV0YbEI1V5/CZAvgnRsmnGXZsPHEcLeGInU7FwUFl24FtKWngDtDSqkKjUa6PR6KC+Z2b9/GRkZwY4dO6RQbao4S6HaN7WOs1CxCo0BCen50iz19ClFyEikCrRjRb7O4x5BY00p6pvbUV9egfKSozhQtgufbT+Eiso69La1oK6yFA3Dop8Q946yEdxUaFD8+HxKhAqntLCoCGnJ0VII5836mhpxH2kGevXq1ZKTunv3bqmQ3a1AJlMhMiEbc2YsRGFi3BeudsswzMUImSnsW0xcBqZMnY4pRdlISIhHWnY+cvMyoNNpqHu/AipSONpRI/yQGEzL86OqphN2bwAyVQiiUjLFa1MRqfej+9R+7NlxDLrMeXjpsQeg6jqO6t5RpGdlIj5SHzwaHc8D63AbBq0uQNgBv8cB03AnrE4ntOExKJo+GznCP7IPNKKmqQ7NtdU4fewQNr1HS0p+gN17j+JMVRu6mytQ2tAlFQazjA7C7NYjPEQOt90Ob8AvxLcJgyMm0efdHafn/rRwXhtOnqtDi8kDqgRnH2jA2ZZO9HR1SfmEY6U2qMqtG3ar5fwMjtlihcvjwWhvFdoG+qRqt+cJeNHXXYu9Laax/0UDsY+2o7u7Hs7gZBLNIjkdNpjNwVkhsxVOiu8Xr+1pqMOgxcbO7YSAKtv2ou5IAxyik/B5XOhsa0dP/yD6u+rQY3JJ94mq+zntVpiD7YM2u9MF55BoW61nMeJwCoflSqgzcoovtokWpXe6xbsF4HaY0N7age4+GkmjnQJwOR2irZiDbYXyBIXTIx43tx9CbZ9FdBDS4Zi7Ai2ir4FRpxNiIPSCwAj4MNrdjkN7DuLgiWp09Y8IJxVIyF+C1OREVO7fhvc/O4hTLQOwi8fd7ma09fWh36BGZGwUdBetKSiTKRCVlo8nv/kN/Mkf/yGefvQhzFz5AB5940/xJ197Ay8+s0g41HrIfA70N5/C8ePHUF5RiXPnqlBVNb6dQ+XpEzhaegINQ46xtsV8LqjCp0904lftm8X9djvtsIz36WKz2J3wuUZQdrYK9X224I7MZINmmt9//300NDRIYc6UL3yjGedxqKnRUixR8WnIyc1FbnYGEqMMUMsva4TqCExf/hyeXbcESVHh0BuMiM2MR7heD31ELPIefgF/+MIGFEUbxHvTeuIq4Qg3YqivG+2WURgKcjBvwUykJQjxLETq5+kf6LPkinOjGWjK56ZCPV3ChzpfwO6LIhd9YVwKstJSERaiuZo/zwjoOvs8VO9g7HqTf+kVxsbjcqC3tlUqYnm16ukBr0+4p9eOEvD7hO9qFf6uzRnMmQ/AOdqNmpYO4aNeXviQCkAJP0XyUYK+ivBjR/p60Nrcgu6eZnQOWaTqydJxbdbz/aRZ7OcW5xJwm1HXcAZVfeax8GHmtiGTKREeHo/MrFxkZMRJ0UixqbnIyUyFLuQq6+4LX3Wk5QR2lJYg6YEVWFoUg6aGfTja1AW/8H+iUtJQUJiOqFAZ7CMeZM9fjIVLpyM/fx7WLV2GaIVXHEK0N//YgB2h0ISL/Z5GsqsPdcJX6RjyCz9nJWKjEhCVWoyCtCSEUSh3+iw89sRjePGFh/HaG1/GH33ta/gabX/0OtY+9xzWfvkPsGFWBmTCBg/3NKCysgJNnd2wijY03NmKyupatAv/a6zopfTWdxTFPwqCf//eUFl0WmyfqjQuWrQIRqMx+Mydwi/lBzXVn8NPPt4NYToQLrPD3nUKuxsdUFtG0DtiRUx6MrRwoqW8BJve/QT7jpbg5KkTqKxrhjYuHu7O3aizhCAlNgFKnwu9DY1o7mzDsSOf4SeVHkzTe2G1uuE0V6OprQHhCcXS0iPO/jps3vQB3tu0C6XHj+PQ0SNoHLLD77aiYu9RKJIzEBdhkBL47zROpxNlZWXSqDjNItDI8u2EOn7aLhQ8ugAVI2lsbJRGshcvXnxzI/W3CL/Hjs72FjTXHMFnPzsBZUY47OLL2FxRBZvPD2vPSfSrspASrsJway22f7wRW4RQOlV2EidOlMIcUMNgL0dFUz1CYvIRqdddEnYZEEKnu/UwPn7vbezaX4H2Hg+iEmMgd/Xj9MlGjHoMSEsJQ8BjxZmTh7Fly3YcOXIMJYfPwhsVA99wD87t/w+cVS3AlORwXHcC6zbgcDhw+PBhxMbGYsqUKVJhhjsB9R2UY3e19xseHpbWS42OjkZeXh7kUnLNncCFjhOVGJQlo6BYjeqzFbDLVLCc3QZbysNYv3wq4vwjoo1HIX1qEdIzczA1NwOq0SqcaPYhM8OAtpIezHtiDeQNW9HmzkZRbjzU0kwLOUYODApndMBkhcvlFH83oKyuVbSxMIQrvdJAnMcLaPRhiEnOQ1ZyBOTJ07Dh4QexZPEiLFy48Pw2f/ZM5MSHI+QOhzT29PRI4oGqCoeH355cRDLMFD56vXVyyVmj84iKikJWVlbw0Zsg4MFoayX2vX0G6qwkIUoudTA85jYc2vkuPti4HYeOlKKkpAR1ViWSYnz4aOth2A2pmJp8wc5Rn+cSzq3Z4UWIWhxLHMznNGNosB8Or0KKFLg0TFu0A/sI2lqFM9zdg96+PvT192PQFUCY6Fu8VhucLj+UGuX58/K5ncJ57UZHewd6enulsOGhYStkaopEGCsY5jD3ob6hRRxvGA6fHuGhSngcFPLWgLbuAUkMDfXTe5nhCdCMpOi3OtvR2dUjHa9/cAgKrf78Z5Dwu9Da2oaARgi1mwwNJ2jpptraWkmIUb9y576/Nw/dN2pnN3tu1E8eOXIEZ86cwcqVK6Wlnj6PTQ143ehtPouDu/fgxJkylJ48jeZ+HxJy8qBX2lHfD+SmpyA5Ug+NEMVyrw0mZ0CI51CEhYWJLVQ4lTbst0fj2QVFCFUrRN+phsZvR/PpA9h18CRG5cLWz5qOjAglzrV3wq9PQGFCFPTnk99vDH3n6P3IRpeXl0sz7Wlpab+nzaZ8brm41vQ7+NAEQxIDQY/8aj4MhbGfO3dOija4PYh+xDSIRuFH2g1RMOrUMA+0o76rF053AB2HytEv+pPo1FiEXNKh2FG7ZQfKar1Izo29bK1b0de4TWiq3oePP3kfu891wSFsS5LwSa0d5eL/XmlAJs54USqJ+M43HduNX1LRzN1bcETYw1rRNnU+E9paWmFzdaPPHY7kqFBYeuqwa9smbNq6C8eOHsKRylogPBkJGotoj1vQKEvH1ITw66+/+3tA94y0B2kQWh7udtmjzwP5usTV2hDVOqirq5MKVJJP/vvjwWBzDY4dPICShnMoE5rm+PEKDHhCoVE40GFTYlZ2MkK1F9VRsfVid8lB9EQtxoNzZyE+NBRKWzcGBwbh1UQK26FAblICwnQhCEtMRXS4Fy0dtcI2RCIuIRMpCQkQTRMNLfXQxU9BfrRu7LP6HWg9UY5WmwMOuw2dTXU4feo02kb8iE/PRaLo19TCXslGK1B+9gTM8kio5Up4hQ/odvRjZ/k5jMTMwepMo+gnKIImHqnxKkTHqLDksa9i9bJFmDdrKpLDFOgy+RATl4zsOKGtgp/r98FisUj9OrUf8jevNSB6n4lnN5r2/AT/+bNPcODoCTTWnsPQiBmJ0Vp0OfWIUwXEHsLxyUwV4tmG5rJKnD3TD2NyvGgI8cgqnIK8tCQ4hYDqk8cjMz4JflMHNr/5Q/z2wFE0t/Yj0FWHMyfOoK1fhdRcpXBSLIhNni4Mnvgy9NVib6cVcdNW4IkVCxHlqsXGzdtw4MARNLT7MH3pQqRGh04K8UwdWWVlpeQ4xcXFBR8d426KZ+dIC9759U/xuw+3oaTsDKo6mtARnoUknw0ag/jyOTvgCStEaoQKAw1NOFnSCE9oBJKSohGfWYiioiIY3XVoGbQhKmU6og0Xi+cAbH2N2Lx5B0amfwlPzUyDu7UeJ872ITw9AsOdw1DoY5CRGiblvNGsNi1jpBYOqkU4z26jHGWbP8POw0cRPfclzMucPOKZCu5QVV9qC6GiA7/Y2NxN8dx6pAw9/iQUTVWjouwE3IZEaIfqhOMSDdlwJUpPlcIUmYqYQDtOiOvWZQ8RnW+jELnZmJFlRNX2ZiQueQCPzNfjdz/bC03BVOSJTp7ain20FTt/+TP8+sPN2H/4CI6LfqWuqgbVp47j6JHD4nqUCMOgREpWBmKjIuAdrkeFNRxzctMRGWa8KM/VAL1OJ4WJ32nuhHimQZWjR49KURq05NTV7v8XEc8UWdJRdRjbd72P7WfOokcmHARjpFQQZRz3sDD6zQ0ILxbOxXIhkmZMR3GuuB8aKw6cbEBYUj5miO/zOH6vE9W1p/BZWR+m56ZA5jKhfO9H+M1HO+AITUFmknBoLw5TDfjQV/pzfP17vxR24jCOijZ0SLSFU1YdZuelo3PPPpxpciG5KAFjdZv9MDdV49P/+gl+JhzaA6XHcPjQYZSd7YAxKQ0p8VSU5Sw++M17+MV7H+PQvsNC8JuQUJgOnb0eG3/6Jn750TZ8tPETfLL3OKrOdMKnDsdI/2n87Ke/wNade8fOYcdGNNtjxLVMhVE4W/R1tDdswjf+9G/RoJ6HeQUxN+0E3wviedzxJmeW2vH17COJKvJzqJ+k2WYSz5/XhtFSXxExol+ZNgXTxHdn5uw5mLtgNnIzYmAd7EL1uHiOEA6mEJq6sDhkZudKodRjWx7iwgI42CfHmsJUKU1ArhBOZlgs0jPzUFg0DdOnTEVafAzUXgvKWzu+kHgmyAaQDaffdH3oOxYfH39VQXC/4HK5JIFMA0k60bdeXjX99otnYYuH+9FwrAS+lBzER+hg6mtBfc8wlCHhcDZ1wi3aaWJGHLTB75PD3C1s0Fbs2vsx9tQOwiPsQUxqGkKDJjzgcaKz8jB2HjiO8AXPYH5kL1rqauDXZsHo70VVrweJiULshodc8FFF29OGRSMrvxAhll3IXPEKlhXnQGMbxcCoCUqtFx5NItLjIhGiFT626IMKi6Ziek4CIISZPyJdCBwZztWegTO8GLOSIyaVeLbZbJIfTH5VRETEJd+ZWy+elTDGJyN33izMmD1DSgeZMWMa8rJT4LF2oW5EdoV4linUiEnIwfTsLEQLFaxSaxEblyb6jWiY7SMYdCqRLbSRUaOEQnwHvKZmlDfUIzwqHVHhEdCIc6f0nxTh72REhwVTnGRQqLSIy87H9LnzMHfOHMyaKc4lwwCFzCZ8qHSkiH1VYlfPaD327diCXQfPCnFdjhOlpdLEY0mjCfkLHsSiRCFcxTVTyIS/PFCJDuFfJ059BMnhesnnCRVtMydV2NVYozRxcCta1iQVz0pEZc/Dg6sWoMsXgSe+9jf4w7WzoTELwTuoQqzaD69Sh5TMFGnmubOmGiePVwgHdQjDwjELiUlHTkoCXP3lGFAkCvGcDL0xGgXLFmF6Gn0R9UjPyMbSB57Ak+unQmPtlNZRjE+dDp1S3NyRNpT1ORGXPhULcpJgtwiDlbsYrzzzHLICFkTm54pOcHKIZ3KQTp8+jX/6p39Cd3e3JIioPVBHcTfFs0obgRnzlmPd0gwoOzLxpz/8azyYFYbu5jaI3h9ydw/8kcVIi1DD1N2KU6Wn0djXg5GRftgUEcjIzkGYqx5tw05hmC4TzwHhxLf1oOuQDuu+NF8aKFFohlA53CkMVCIUZitUhjHx7LP3CQd2Mw6WVqB/YAgebQLmzJ8ijJgHbls9DFOfxKz0ySOeqU188MEH+NGPfiQZQeq49Hq91I7unngOCDEUQGiScGJThKCXa5GRPwe5wlGoKymFJTwDsx/agJz0RGQLURwYHsKZsjMYjViAR1etQl6sAQG/VgifHKTkzUGisQMWYwby40hsyaS2mD9/GdZtoCWPHscTTzyJp596Ck898bj0/+OPP4qlC6YgVog50lvWvjps3r4fNRVncPLECZSSoTlxCtV9LqRmJEN3n4pnaoO07vGbb74phY2SE0IDBvT4uDPy+cSzDz1n9+L9T7ejuqMXqvQ1+NpLD8HXWYYTZ6vR3DkIpS4KUUYt/PZulJ88grKKTnS3dqGpsR49ZgXi41RCsLYhIqXgUvEsvr9d3S2o6Q9gbmY4zh7ZjA8PtCBr2YvYsDwfCuHEnNi5Hdt3H0CNXYnYSCNcHcdxJv1JfO/P/hAvPPUkHhftYd28IoTKPOiprJZmDrKnJ2Osxw7A0j2AgQ41Fj35Ev7oG6/hqcc3YO2aZchNiYXM2YP3fvIuOpQL8Z2//xqefvoBxIxsxa+PtmLm8kew4sFH8MDymVAmxCJy1dfwr19bj6m5EegaMCOycCH+4Kuv46WnxTmsKkLZ/n3wR6UhPSESSmG/9v78Y2iFgOs+3YvixVMRcZETdj3uBfFM50RC6Xvf+x5OnTolOUyRkZGSvbpcJFJfRREIVIV67dq10oDO5xWStD8V1jGGhUvtmbYwo0E4gAH097ajZnBMPCeReKYfOc0sK6XzkTbxt8PSgwPdwJqCMfFMfYpcOLJaXSjCqP8UziXlngfcJpxp60RAH4+CLyCeCZqBpu83FS4jYZmenn6FoLyfoGtNDvS//uu/Sr/p/pAPQ5+Z7t2dEM9uywg6xHsE4tOgF+1ieKgbfXa/8KOi4G3rhk+cE4lnlb0fpds/w94TpTjd5sTyL/8Vnpoeg0NHDqKjswPNvS6kpcRBJtpB2ck20baK8dIzc5AaFYtA1wgcJqdoUzY0jQDJySlCPNPM83gbEe1U+EVhEUbUHd8EVdoiuM8cxNbDlXBpo5AQIwSQJgnpsZHQiGtDKU4R4Ua4zaOir/QiJTUWxhA7Kutr4Y+eOunEM7UXSncgmUXnR30F+bvUvm69eKZUMy0M4nOP9ykREWEw6DQY6m9B3ZAcMy8Tz5ArxfnooKNIIqkLIeGrgVq4ff3D/RhwKJElxDNFthAkwkuO7EbpyRqcOV0xJnZLT+CMsI+a6FQkR48NPFMRTq0xTLoH4cFzCRXCeWhU+Lqh6cI3HhPP7pE6/P/t3Qdg0+edP/63LMnylvfGxsZmGDB7jzADIYEMMprdNG2TNB3X/tpcex3pXa8jd/82SXtdaVablixISAIZ7L33NB54770kW/P/fL6WCSGAgGBbhvfrTiWWZFn299HzfD7PPFVYDEPEYFVGByIxPh7x0SFocOmROGIqpid5cgO3A82VJ7Bl3YfYfrgBR/fLz92NPXsPoKCoEUEqiY6MCNbipC/qOk2e5aKpq95ejVV/ew8YNgXT00PRUrQXf3/tHRw+UYvwgcMxOitFBSIWVORUqoYgATMXz8WUidlIiFTJTmAIbDWHUG/oSp6lzFQd/ghvvrwREdmjEBFkRF3uKXQERyLCUI/cgnzogtNgDg2Bq6kI208UotWqQ4i9BacPbsQHqzdi387tOFlox4hpU/p85FmCTkmKeqPhk2RHNhqRhGiPCvZljZhUHpIUlZSUoLS0VCsnvZk8a5WDQQ9L4Rq89lEOxi9ZgGi9FYfXvoNlKpgubOjE4LEzkR5lQmNJLaprTRg5e5YKOCdiaGosgoICVAB8CmVNnZ9PntW/bmcjjpSvxfbmAATWlyNnz2nYXYkYPTIGDWX12shzemo4XJ0tOFjYgLSssZh/wzSMHZWJsGAVKDmc6KjfC3vaYoxPO+t4mV7SPR0xISFBq9Clku8NUh6lbMoaQkmiDx8+rI04yoiH/CtBmyRGvZs8GxCRmopklRwZ/UMwIDUTSSrZiRwwBNMXLMC0CWMxWD2enpyiHQU0cPhYzFb3z5s8AokRcj5wKFJHZiAmUjoB9EjOHOdJnLtIEKY/OyA+z82ggtauwFyCmFBEBvhr0zjDtKmb6qYq+OiYBKQmxfTZyLPU+T2ZPIvExERs3LgRf/vb37Br1y5t+qg0yNLGSBm9nOTZ2dmKwlNHcLqyDWkjZ2BojD9a220Ii4hDhNGhGngLgiJiEa2udUBgKMLNCQhT16CupBLBCYlIHpiO1Bgddh8qOm/yXF1ThsI6J2IcxXhv/W4MvmEx7po3FgEdKsj9eDkOFzXBHBeBhvIjMIQmIKQ1B+uK3UgJ8IOlqQH1DQ1w6k0IMelRcyIPjQhH5lnJs7WmGnlH8tX9TuhMdjSperXF6lTvNRCWgvfxXpEf7rl7EVJiwuBvDEbKsBHISItFTIQKguTYEmsjTpSUoTUkEzdmRsIPNhSVV8KiC1LlOVm1cSYYg3QoOroJurgsZCTFwV2Tg5f3tmDqnbfDr+o9NEVPVIlYqFR5XknyLJ9fX06ehZQdKc9/+MMfsGbNGq1cy2dMyll3ACWjzjJLRtpSGX2VIP2L1JHy2T77Bp0egcHhSEtK1K5f4IU2lFPPlTopIy4GSeauzrUzzrye52u9P6JV2c6Ij9FGl+QYrCshCbS04TJ9Wz6P584ou9ZI54mUgddee00781riFSkLUoalnBw9erRnk+e2Whza8E+8/vE2bN6yFVt2H0SbMRpZ6amwdyfPqSqRblRxxql8WIMSMWnsMLRv2Y2cAjcmzRkFv4Zi1HfKEXeqDjPacKyhErkRyVg8JFaVGQdO532Cd95/HR9tOoo6fSzGjxqOpHCZeut5E0IrS0V464/r0Jk2CUPC/NDc1glDcJBKWFTcryXPEZBBRyl3trYK9bfZiVaTCeVHN+Ldt1diw7E6pI+fhYkpUT2aPEunhlwzWcokn92+Jn8PiaWk/Lz66qvYu3evlpzJZ0cGsOS9yufq6iTPXbrrkk9vQGBQGAYmxiE+IuRzmzme72rI2ukg9T1JUdGIVnFp9wabetWemEOjVMxuRmioJwZRt/CIaBUnDUC0+dNBuXPfh59/MEIiVL2h8gI5wUJeUh8QidCQBAQHmVVb7nk9VVeNHjkOc7PTEW7qeq8y+8YYHIUQc4p6btiZnyu3yKg4VR/FIzxMZkxoT/9CLjV51qnG4KottZYETRodORfyqaeeQnJysueR3iObKhQeXIGf/eQZNA76Ef78nzfCkP8ulhXFYJxZjw5jKCbNnYpItOPE1o/x6otv4mhVC3SqAfQLT8L0R57AbMMGVASMx/wxkxFi6MSWd1/Eazlp+O1Ti2DoaEX+zrdRHDAUQwMr8Nyz/wPX4EfwxDeewCDncbz26itYufm4tlYRodGY++DX8cCsbOS8sxJR827G6IEJqtK6Clf4Mkmw+de//lVLROQcSpmKdBUv/XnJ6+/YsQPf//73td5qSQbkCIwHH3xQS5hlh9If/vCHWiPVe9xwdtRh7S+/jad22fCDX/wGdwyPxrZ122CKS0BA2350pN2FGYPCUHtqP15/5e9Ye6gAblU+pJJLm3sHHhzViMJ6O4ZPewRDVUDymdFhFTw3FW/By7//H2woiMT4uffgsSdvRmhbDY4dr4QpIgXZWbFwW+uxasUyLF+9GY2tHdJniNDpX8Ezj82BMe8lHAq5G3OHJuCsE3V6hYzy/uIXv9CCBNlptTdHF5qamvC73/0OH330kdYQSqUlu9fK+5DHpkyZgiVLlmjXgfqefL4lifjnP/+J8ePHax1jQoICaXi+aP0iSZZcd2lX5LVkWr8kNtJjL+UyMzMTX/nKV7QAVsrEhx9+qN03f/58zyucX1vFHvzvr/4Tu/LVF65OOGXDEXlA1cvyOnoVHGTPvxOP3nEjIm1lyM0vRXV5NXKOnkTwsCykJqpgMcEPKz46iPQpt+PL01LkuzWyjv3g/nV46e110DerwDVwMv7fdx/FuLRw1OXsxHP/zMPgWbNx97w0+DulkXCjcuP/4u7ffAK9y6AdRyWjjLPu/x6+dddU5C7/EKcxEDc9PBldXdEuNJw4gH/+9o9473AuXOauKZaxWfPwja8/gOiiv+OjiigsXfoQUqI+Pb/5DLcTzdWn8Na2nSiNXoD/mpWsqqxWbNi8ATtPVqjfKxHRISa4y09iTW4A7vry7Zg4JA6n1r2Kj4+F4fFv3ISjK/+FrbUJ+Mo3bkH0JXwUZWO7ZcuWadMI09LSfDZ5FnJOs4wnyFRLCfikbbrrrrvw0EMPaQGutJsyo2rlypWYPXu2tpnW9VIfyWdQOkH+8Y9/aCPukqBIMi3tuOxJcK2R679582at81865oQkQt/85je1gQHpxHvxxRe1+68+mWFSiD3vvIfgObcia0AU6kqP4Wh1p0oUMmDdvFclsukYNzUFBRtexR9f34aaZpuWPGjH0ssHX+JMdc10ZpVUf+UHeGpyONau2YEtFfH42TcmwWStwqHNG9FuSEBytB2fFNgxccIUjE2N+EyMKrsn17z7DyxrDseAyChMnT8R7Yf341hpFczxTtjMEzFrRDoC9LKPRxMO7V6OtSU63DjjFoyID4ez9TRee38FOgbfi69NSu+xo8akDEruIZ3v8pmVa+ULJJZ5+eWX8dJLL2nxt8Q148aNw5e+9CW0tbVhwIABuO+++zzPpr4ms9teeeUVbXaNxBaSoJ/PNZY8O9F0dC3+8NZuZN2yBOFrNuJUfBZmDKvGusoEjDX7waIP8iTPigokLC2VyDm2DyfyqtHe4YbLqUNQgA1pk+dj0pBMbeS5KW8nVr/wFooik+DSGxDjn4AJN05Bgv4kcstrkT31IUQFdlU2krzbOm0qGZeRo+5NXlqx/qU3ED57EUanJfZZ8vynP/1JGwGW6yLB51W89OcljY80rG+//bY21U2CJqk4pFDKpiOyduunP/2plqj1Fnt7FTa9/Ro+PJSCRx4Kxc61B5A6/z64SnIQGq+S1ba9sKbeiRkZXWdMOjvbUFZ0GIeOnUKNSpidqnwYXc2IHjwM4yfNRkJo8Dm9XW50Wupw4HghAuOGYkSiTGOR+5pQVtYEY0gsBqaYtY0NXB1NOLJ5G44UV8Aq10KVHbvTpa2bHLfk65icHobeDsskeX766ae1afUZGRnaqEpPl5Nu0shIb74EJdLZIj9byoaUl5SUFK2BYfLsO6RcSPL8zDPPaPVLd0eLJBgSEHzRciPXWZZ2SE+wvJaUTekRlgBE6hKZwSKzaL71rW9pGzbJkUGXkjwLt2wEeeQ1WFPuxQCzZ8dfpwWl9TUo6TRjwoBoBMKK08e2Yf3GLSiq6YCfMUj7PLqDIjB6fAYOHzqNtCl3qOR5gHy3xmm3YN+Wt/E/L36Asaq+j1ef8UZTMu64/SYYq7biT+urMGbGjbh9fDIMKsqVwLR083P4Vd1U/NfiKYgL/HQU097egkNa8pyGRQ9PQqh2rwt1R49h26oTCJ88HpNnZ+DsfvHy7b/HXw8C9y79MobEh2l1k9QnTa1WBASHaRtbnjd5XrsaKzfshb9qtzpKTmJzQRi++4sf40uzhyDErxWv/OYnWF8fqeqkSDQUH8aB4gh8+7+fxqzBoV43aZEp988995zWBsjsEmkXfJG8L1mjKKNEMjNKvpY6SEaJpN6RmEbKtXQIy7nOsrRCyl1vdAZI+ZdPk7dZa2c+c+p5V/uvLK8t0+8lYZS/h8wakyU+Eu/J3+1aI9df6hy53jJFX8qv1HGSOA8bNkwbff/73//uefbVJsnzaex48024xs1DRqIZDVX5KGw3ImPgUFg8yfP42dmIMOjhaMzH1k07UVBr0Xa+1l5BxbeITMUNqj4cFuGvbVybv2Mr1u7IQdrNC5BgzUVeQRtSh8/FAP8TWHm8ExMmTP5s8uxyoLrwY7z3QjNmfHUqynJ2wxo+RtVI1SioqEZYd/I8PBWOulLsX/8hdtZYMXrWYswckYEg6f1vycdL776Btowv4es9nDzLTMdnn31Wiy9lmv0XbYOuBilH0im3fv16bd+O7rZL6hKZJSWJvgwokW+4PpNndwsOPP8bHE1ajNuWTERgWwFWqYAqNDwAJzoGYlSIH6yGT5Nne3sD9mxZiz1VVlWQByLOpNeCquLDB+A/6kbcMmU40F6BwyeKUFt0Ap+s+whbbIPxvUXTVGIRjwBdDVrbGjFKJc/RgV0VQmdrLfJOnkZQXIp6zXjPFJV27F+9AaFjpiAjIcprA9gTukeeJRi45ZZbtA9vT1csEuT+5S9/wfPPP6/9XCkPM2bM0HqtpVGSBK23R55bK/bhpU8OYNaC+zAqzg+nNr6Hf1XGY2RgG+KTk7TkuSP1rq7kGTaU7tmIT3Ydgm7AUKRHR8Kgc6Lu+B6UIQnzb1uMzDiV4J59OVVA3FJ7HH968U00qUZmYVaUutOFtqZq5JU4MHjsDVg4PUULwmXn7/K8fJQ3NMPe3eBJML3j/0PD1D/iqzPS4ClWvUZGEn75y19q10oqjp5eG382mQ4pa+SlAZSGT0Z6Fi5cqE2dkdEeGbli8uw7pP6Q5Pmdd97RrktSUpLnka7HrhYJPiQwkqD997//vXafjGDecMMNuO2227Qp4xK8r169+pKTZ5etGTv/OhN7In6O7CQJFtWdnU04WlmB8qgp+N68bMR6DjVuK3gfOXVWxGTOQ3JEVNdzrcV46b29SBwxEzeNiNWeJxzqM31g/0Z8cKQD33lgIVpyNuHN5VtgzFyIReOMWPXBYcSOmoxbZg2Fo6UUdv8I2A6+gt/UTsRPbpqI2ICunynHmMFuxZF3PkSBMwUL7h2rknmdCryAJpXAbP/gOEImjMbEmeld07nV38igEl9b/X78/oXNGDj+ZiyaMRD+fk7UnFiDFQebMX/xPRgZF6Alz29u3YHSmIX4hZY8t2Djzn0od4Ri3sSRCFOB+LIXXkRF9Djcc9ctGGjfiV89swsjb5qBeLMJzo567Hj9X3Df+G/45p3TEO5lbYmMPMtokOxvIdfHl0eeN23apHXoyj4d0i7JzBcp23PnztU68KQdk7WukjzLbAu5/+rVR9J571Rl3QHXmc+PzIaQs03rkGcJxsj4sK4plOpxu70TDk+mJNMaZTmSHKvWYHEgItyMkLOOxbsapHNTPu+ytOaOO+7QZgLJcgkZPZPHrjWSLMsMgz/+8Y/alG1JmuWaSyeu1EcyKi3LSHqGG5b6Umx7809YVyDn5Rrh1huQOno65qrPaO3aPZ9NnttqUJBfiLo2myo7Xa/g6qzCJ8dLMWrBV3DP0HD1ki5Vjmpw7OAnWLPlCBr8B2D0jNlYOGoI7IXbsPxY5+dGnl0djfh4+xoYU2bhhkExaCs7gg07GxAf4UJdUxPC4hxa8jxjcBwqD+zC/rxGJMprDE5AcPe0OZU8v6iS5/ZeSJ4l95Br9uUvf/kz7VFfkqVw0sEss2+krpCkTOoNab8kqZYR8nvvvdfzbOpr1+nI8+e5VTBTeXAFXi+Oxbgw/WeSZ2tjBbas3oGGkGiMnTQU4Z45LyX7PsZR0yjcOS0LLblr8Os/LkddS6en0Zc/lx7hAwZhwvRsDAxuR/bUB88kz9bGMuzfeRDGqCQMSE3yJFY66NSHJigkDMHnO2utF0jy/MILL2jrumS6iIwA9DRZzyHTKqXXtrvRkd56qeRkaq5suvLv//7vvTxt+1xudLQ3YNPanQiKT4Spbd+nI8/uNhxeuQ67TjQha/E0ZMhIjrp61tyN+DivE+PmLcHoZDl6wfNSGhdaa47jD7/+Bd7aVYfECBkXcsPhcME0YDIe+urXcMeU5AuPKLtsOLXqcWyK+gkemqIamp5pZy5Ikudf/epX2oielJMLrfe42robvh/96Edawi5LC6Q3VtZJSjlavny5NlPBF5JnmV3SaWlDW3sH5CAKCVz9A4IRHByo7aTssLWj06WHyd90Zq3Qtag7eZak9eGHH9Yam54iDdqjjz6qTZ+UDrgHHnhAmzIryYyQIOSykmeVMG5+djx+/skABKrrpF0mpw3tYfEYfde38bMlExAV0HXtGg//DTsKaxE1eLG2yY5W+lRwqdIaBIeFfeb8TJm2feTYLqwvMOCbd0yHydGKY5vfxLub8zFs1q0Y0HEQJ4ptCIlORFndESSMuRVj27fgl3uMWDgsHWZtjZdKhI2JGD46FRUfrcTG3DZkTE1HAAwwq++LhQ0HPtyG6pBQpGTFabtw6/0DkZSZhcyEcBRs+Tte/KAJE+Zmweyy4OC61XCPux1P3n87Iv2daKnJxzs796A8ei5+PD1RG3neuvcAKuwhmDVuJBJCjGjN/Rj/86d/InXWIxhT/QHe8luE798/FzFBBrgdHTi97bf4r10xeOorD2N47MU72CR5fu+997ROWzmtwFc7v6QDRmbdSKIvifLSpUu1cn1u+yQbi8lzpPw/8sgjWkff1SAdp3XlxaqMF6HJ6jlv18+EhLRBcFeux/cKRmLlA+MQEWCA09qAg/s2o6rZBFX9wBioykLGENgaS7DhVD3m3DAD2bGf7hp/NUh8J+22tOe33nqrtgTrWiXXVtod2UBOkmQpD3fKZo7qJstTpJPl9ddf12Kq3tbZVI3db21TyfMglTyP1JLn83FZivDSR5tgzroVdw+7yOw+twPVOZtU8mzDpAmTMeacadvncnRaUbh/D46V1iA83oVObdp2GlSxPD/PyLMkz70xbVtmjnz3u9/VRp/7mnQqycyFJ554Qvv8yEwVabtkh36ZUfX+++9rM7Uk1upLbpcD1g4rXIZghFzNtYIqn7LbbVo8FGTqWufcTX5mh7UN7RabqucCEBIarGKmSz8CsadcavJ8zW0Y9jluJ2wt1ahyhCMpLBCGwCDEJcVpU930simPqQVF5Sdw8lguCnLzkJurGq7WAJU8DEVSbAQiEodg0eLbtUpTGtM7l8q/d2DR7MlIDmyF1aFDdPxgVSF0XXK3w4KS/GM4knMK+QVFyMvN1dYJ5ZZWwc8chwSzbDDV+8VDPrgS6PbWbtvSaytTxCVp/+pXv4rHH3/8zBQ3eayvdtv+PJ16P3Y01jcjyByOQL0F+ogMJIRJUGJEaKQfrO5inMzNQf6p0+pa5qOwwoaU9GEYPjgZIWedv9pFzlJsQ2llA8IGjMT0CaO0KV6ZgwYiMTEVmRkZGBgXcuEKQlU2bVVH0WKeoE27vF5225aGRDYqkw63J598Uuto6d6QRhL6vtlt+/zsbU3I2b4J6zfswqliVSZO5ON0RSv8gsMQHhqA1qrDKGjsUI2iGSa/rjOK7Q6VZvvptc++NBrSqDrU/Q71r/w+MrrqVtfe6VDPVZ8PbfhArr0kaTJioBog6YDRqdanL+qPC+mN3balvpAdkKVsSrLy2GOPaUnY2eXgso+qcqvPfOkeuBJvxPgx2chSn9FhQwYhMSUZMQOHYWxKlGcHY/XzLZU4lVOEk3k1KCwoPFOn5xdUwD88HrGyIZz2TLlckviaEBUR1bUBpcGECJXwRobLZidxGJI1Ev5WC8qrG1UyPhezxo5AdKiqD5oa0azqyib1ezQ3t6DNEoCUIQMREeJGi6Uedeqx5uZ2uPXBSEpNUgmbSoItDWhqkuc3o1UFIMFR8UiIiURSuiTRNuTmlaKx1YVBkx/Cl++a1nVkjZQnVQ6Dgs1IUUlAYqhKvWUzFvWeoyMiEGMOhr/eD6aodAxUibi/SspMzgiMnDAeKdosG/X96vmB5lSEu0OQPCBW2731YiWyvxxVJTvfSht5880349/+7d+0wOl8bZNM3ZXpl/I7ye9z1X4nlTxXF+Wq+vcASmoa0NpUicIaC4JjEhFkL8Pa+ijcMSwewf4GdNQdwav/+B2qO6Jht7bCYnMiRD3P39mKwtp2bUpobLCcKX516gpJJmUqu3R4SweVHNEle5hcq6TOliVEMgNBOuOkPEiHrnSUyGe8N3bbvhA5I7y5qhmG6CgVy0apNub811iLRWubYI5Jw6CIi8R7OjdsbY2osRqRFJ+AGNWGXazYuNVnxaLqHKsLCA0PhDE4AUlS113oI2C3oLSmGqaYIciKM/dYh7J8hn1tt22Ju2W6ttQPkkB/4xvf0D47Eldd/d22r5D6bHe2VWHnwQ3IcaZgSKRRxSFOqGhDKwdOldfZ1a2r7eg6Dko6+uw2B5zqe9UfXjYokTvhUF9K+bSrWMVPOkntrThdcBy7iqxIiFbx9VkjTa21+di3dwv27j+KnFPVsAWEqbY0pM8HHK7bDcM+R3o+rM1oshsQqC6KWxWAoJDgMyN/Mk27ua4C1XUt6NDKhwp8YhMRGxP62fM4zyWvq5KkTrsDgUGRZyoOt9OGhrpK1NQ1wyYlqZsKTmISU7Tk+WIVU0/pHnmWXnTp5bpaveUXIlO2ZTRIpofLtBRpcLrJelbfGXmWS+lEW1s7/AwqCHRZ4fY3qwDl097cjrY6VFVVq2DVoeoZA0LCY5GUEImAC0yLkzWGdVXlqGpQwa7n4yXTME0h4YiLj0O4LDy8EKnIWsvRbohFRJD/RYPSntA98iyVuUwl6q2RZ2lIpMdPAlHpdOsuL/L3k6RoxYoVPjPy3F5bjj3vfYwSWyRGTkuHrqMFRw8cR1NQChYsmImQpm041RmFrNQMWIuP4ERRHaydNsRmTcOEoclwlG/FyWqgraIJFpMJQ7InIC3eDEtDGU6eOI5aqw7mwBDEDkhHUnIc7A2l2Hs4B61WP2QMH4Vh6XFagtPX5Nr0xsiz1BeSgHWvNzxfonK5I8/SqdpWm4eiahuc3fMc1afNzxSEyLhE7azn7urf1dmE6qoq1Dd3nllPKHR+JsQlpyA24jwbc3mh1QsSjJz99bk8j3/msYt9z1mPqUfV457//Mz9l0d7CfVCZ9ffZ8gPON/955CRZ5lKKSPPUq/44sizJEtS/8jfVNorb/WedPzKaLoEvlInSUffef9Gl8WFxrJCrH4/H0nZGciIr8TOhnhMHxyHpiOv4+F32/DDW6Zj3tSxMDbsw2ufrMKNt/8EA8O7EiOJZU4c2Ys31uxG8vAJmD9lPNKizt2T48rIMiu5htJZJoMIElR+8d/Xd0l5qKur0/6VOkc6Uc7+fTds2IA33nijT0ae3U6HSl7b4VL1YVBw4Jl66nNcKhZtVXGNSkrCTRf7zLnh6GxHc4db/Z5BCPQy+iedvDaLVYt95XAbtz4QIQFyhJfnCeeSmLilSb3fcESqmKanciO5Vt0jz9LZ0ZMzoS6V5ERSV8hMz3M72aR8+cTIs7qeLdXH8PJ7L6N2yFP4wTCbirlqEBiXgQHRNuScOInS6nYkpQ/BsMEDEebvQk3BbhzIq4OfORJRDS2In3Yjol3FWFvuQmxLDmpbDRg8eipiUInlK97CluoB+Lcv346xmar91q6/A0fXLcO2ojZkDs5GZ9lpnKyPxj0PzUayWRYo9R2OPHdTn2g5sDs4wAR/k792Ft3ZoZccbRUQEoHo2Hjt6Im4uGiEhZi8H+cgr2tQr+kvZ+J57lO0Xn2VJMXExmmvd+YW07U9e1+1N/Ih7s2RZ6kkJCk+OxHq5lsjz3Ip/bS/h7/MRFDX89zExOAfhPDIWFU25FrGIjI8+HPb/Z9NylRwWKQWUHVf/7i4WERHhCHgQkePdFN/K4Op64iSvigqfTXyLEGojBpK0HpueZHAzXdGnt2wW9pQW1yLkKQsTJo2AonJA5AaaUFZfiUQGAt7+UpsrXQgxuDC3p0bcPB4IUpPbsbGQ06MGpcF+96f4vn3c9FSXodT+YdQ2x6J9AFBKNy/Dms27EBhRRGO79yOOr8IxMYE4NC2zdiw7yhKTxehoKoZISnpSAi9OscyfFG9MfIsyZY0YNIRd6GA/bJHnmWqfXA0Ys/6jMbHxyEuWtVZgZ+dXqYzBCA0XJ7b/bzuz3Q0QryMul6I/B5nf5/29bm38z3muU985v5zHlOPXuD+yyPfK69xXhe6/xz95ZxnKb+yQeGl1HkS8Mr3SMeAdPzJ73W+uutySKdrfWk+jqw7glbYVJtdhIOlHQgP9AeacrFicw7iIyIxImsoAhxV2HNwN4xBaehsbVSBeJN6Hy60tVZh9549aHIHIjU9A4kqEP0i9YR0JshIzPbt27X4QdaAjx2rkvdreNRZSJ0jAwxS78jveu517cuRZxn98w8MULHsZ+upz5FjzwICEeB1mrROJcEqEVcxslHFNd6Ki/wtDCqONqny7u+v3kf3GcEXomLiwMBgBElS/gXKoje+OPIsdYnEwefbKNFnRp5VTNPZXotDuQdQZxyI4PId2HawCsYAM5qrjmDNlj3Iyy9CsYpX3BFRCLZVYO3Kd7DzVDFqa45jzbN/QfDM+xBXtwoP/XULwqylKDqVg6qaZuiD9Di4aydO1xgweuQIpCWZPWXWjvaaNsQNGIbsUcMRZK1F7oE6JE8agqggk9dNKHvSpY48+14rRtcEqSi+SCBB5NtkZM+Nrm1y/BAcnYwEXTD8m61wOh1wOF3awFza5Jtxy+L5mDEtG5ajx1Hd0A6DnxsdscOw9Hv/D19ZOh/2ggpUFJahrqgZY+Y8hO987SsYNyhJNapu1OUfxOkqB7708OP42b8/ihT9KbxxtAo29frXi/5ej7hkB/2zh6wvSJZ8yGZRni+/EPVaKpiUgNLlUGXRcy+d3+W2VxIUS8AryaQE67KuUY5V+yJc9nY0t9ZCF9GGxuYi5Bc3A7VFKCk8jYZOHSLnPYzH7l+C+FCjdj5qdJAZ+ccOamfH7t13GCdza7SjONMmL8KD99yJSaldZ+9+ERJIyukH0kkgAyIzZ87s885uIrr63M11yN28AnuKWzHl1lswIbUTxXnlyJ55B57+8ZOYkmbH7tzj2LvzEBqDZuGr3/wJnrh1DkxGHRwq2JHlaG5XIObe9x/47re+irDGHci3hmDezQswevZMZA2OhsvWoQ3k2ex6DJw4A9mjs+DXVoCD6nX9hiUhMuCzg5u+jMkzEdEV6g63ZSqdSnvg9utav6wF4o521B07gF0qsC1rcyFIp1cVrlv7Hv/EOISEBMMUYkawnxOdrQ6gzYS46CiEmmOQYI5HeIAR1to6mAMDEBcahDBzFAanh6JIJeBXJ8Giq8cNe6cFdXW12q7xNTW1qG9qQbtKPioPFaHocDVsnufJhjvN9fWolefVynNr0NjWAaezBUdeW4fSOqsn2ZVzUzvR3FjneU3Pra4eze0dUDnxGfaOdjTVdz2vrr4ZNks99p46ieN5JTj6QR6uvYOE+p6MPssIl9xkJpUsQ5IE+nPT6S+RnzEEA4aMx8L7l2LRkoWYv+B2PHjbTZg+ZijCg7vWpsuIqFQt/mEpmHfTlzFV/ewpU6di6pTxGJmVgBB/IwJllp2ha3+FKyW/g8zmkH0o5PfKysrSNujzhdE8Irq6dNLiWCyw1rfB3RmKcJMJjrY2GB0OJMVGIiI0HGkp4ehwd6C61IYBA5MQHx6KiLgMZAUEwyh1nswwGD4FA6PDEGROQEJKLBparDKNA35+OlirS7B31Uq8/sZKbD5ciOYOB9rrcrBp9fsoqA3DlIlZiA7s/aWKV4rJMxHR5VKNhRwrI0tV7B2tKDyVjxK7E4aYsK5pqbpOVGzcgAMHK5A8cg4WTspGpL++K+mVXtqzAmzJgfRBqskIsqFRBayWtmY0tDei3e6AKdyMdpsNDZYOtLe3oKyiHfE+MmWbPuVy2lBwai9efPsDbc3dJ2vWYdueoyivbkDJzlyc2lkGq0tmI7jRVlWGgzu3YPV7K/DWWyvx0cfrsOdUBaw2lfD+QQUSVZauGQ0uJ1qqcvHxxx9g1cdrtSPc1q75BCtXr8IHe4+hvM2h/WwpT2Un9mLdmtXaniObth1QSXkZthw9iIPH87Dv9WNo63omXWUyHVNGn+UYPRmd3bJli7bM5EoSaD9DAMzmSOh17Sjs1CEoPhWDMjKQOiARMbHJyI4PPbOZjk7vjwB/Aw5W2hAzcBAyMgYiOTkKyQlJmJI1CHHBX2xatYw4y2i6bNQnG17KqPOF1v4RUf8mtZUuMhFZ8+7B8IhOHD5wBK36ADgNetQ1taK1vQ1V1a0wqv+LiDWgtroODW0WtDZWoNjeCad01LldcBafULFLBzrbmtBYZ1dJdyD8VF2ozYBSwY9b3eS/1X+hqToPm7ZuxPGmSEy4YS6GDYhWeXb/CWyYPBMRXTJZQyrndpdgyydv428vvIAX/vIvfLSrBmYV6KakmM9sHmgKi1GJtBuFh/diz6FKON31aOno1EaPuo8CkX9kB21TTBQiUoJxdMf7WLbiHRwuqofDGYCYwSMRY9Zh1fsr8MLLy5HXkojbhsV6zo8nXyG7j5YVHsFbqz7WktyNm3cjv6QVfv46dFiKsG/7GmzdmYNmqwPGoBDEJCQizORGh90fMXGJiIsI1jb+cdrtkDN+tT4WlTxbmqtQ3GJDWEKKdlxOSnICjPoO5FRWoaq9K3mWZzeWV0GVLETHhaI0dy9ef3059h8rleIK59lD1HTVyTRmSaDl3GNZdy/HGF3xCLSzE1VlOdieU4CyRou28abN7kZk4ig8Oi750/Wr6rXbG8vw8Z5TqLd0ep7nRHBIOIamJCLCc174lZC1mDLaLImzdArIBnyyFpyIrl26gACEJQ7EkKGpqDl1ArvLgcjUOBzdtQZ/eel17Mp3IzslE2MnD4OhfjveWvYi3lyzGfXWSAR4Tp3pKDqI1W/9Da8tewt1+lGYICfSqHjJeeoIyq3+GLtkKR584E7MGZ2A8kMbsPzdLcgvr8DB3R/h/TUbUNFq7eo47geYPBMRXQZjiBnpE8ZhxNhBiDCbER4dh5HjJ2LGxOGICzNBr2LmSP9QpM5ZgGk3jEFyTDQSs2/AvU/cjcz4MIQNfwh3TxyL8AB/FRQPxpQFE5AQE4vkoaMxYkQmYmMSEB+ZjujgcETGD8KM6VOQlaoSrMQ0zJt3E2ZoaxmZPPsU6V0PCEX86Bm46aabsHDBfEybMAwxIbLZkAGmgCAEynouP1kfH4+sMaORmRiBQHMisseOR3ZaLEwy5V9d10+vrBs6vQHhyRkYO2kqpmrTcyche1g6woL9z5q6L7thGxAaGYPk5BSkpydpmxOaVEDT1dlDPU1GoOUoxkmTJmkbSckMgCsagZapjzoX2o5uxvKX/ojnnnsOzz3/e/z1leXYe6wUHWftdSCdLe7iHXjl/57vep66Pf/8C1j+wR5UyTKQK9DW1qadayzH68hxcLLGmYkz0TVMp0NAWCJmTF6CmwdHITVrEmbfMBEZyYkYO24SpmRnICE+GZOmzcLs4ZkYkDwIE6dmq8fjERufhgFh2QgPls46HfTRKn6RI9QGDMG0hQsxJCEOqYNGYdHkoYgODdQ2mpNTM2TPiNjUkVgw/yZMG5mJuKgIhIYEwaDzvmGdr2DyTER0GYwBIUgfNw2L77kLt99+G267Y6FqeIYiPlSP+sJjOHDAApM7EuHxGZg1f6F6ziJMGjMKU29egIz4cAQOnIcbhmVq6xPDogdgxPihCHZbUFmSj+oGKxx21XzIzs9J0QgzmhCfOhgLF96E2269CRNHpn7mGDXyEZ4WX862lMDADx1oqMpDSVkt/PwTMGzkRIweOVA7F16CFaelEUWHj+JE/glUWzq0kebP08Ft70RlzgGs+3AVVq1St9UfYcvOw6httJyZui/pcXBEEOqL87Bty27UWfwwceZNuGX6WCTFq2BoYhJ69mwFEnJiw7hx47SEU6Zwf/zxx5c/Am0IROqQKbhn3lzMGp+trTXWbsOGYFC8+dMZJ6oMmeOH4LG7F2JS9vBPn5c1GGkp0Qg0Xn4IKkfCyRpnma4tI+mzZ8/mVG2ia54O/oGRyM6aiomJQQgKj8HoiWMwOSsJsbEDMG3mXNxx282YOSELMaFGtNWcxomCFthtOljb3TAsmonkaOnMVf8dmoLJc2/FLYsXY2RGDPwN/ohIzMDUG2/A0LRYlRx7fiQCMGjkVNx+1z248847cNttt2H+9ImICeaaZyKia5MKXPVGfwQGBWnHJwUHBcLfcwSZ26Xy3qELMDZrlHbEjMkUgCB5XO+nfY8ccabz84dRNv7RXkrdb9CrxisU0XFpiDKHIiA0ElnjR2PooASYJFjW6REQEKheJ+CiR6RR3/HTmzA4bQRuGxqtjR7LSnbZdV1dWKRMzcLwG9IR6q+SannI2Yma3HWo8h+I4SlO7C8oRKP18yOFcuRdaOwgTMhMhX9rHXK3nUBuTgOiVDmZOTQTqWGeda2qDCUPH4vRqTEoObQfm9Z8jBf++jI2rXgP777+No6oiKV3DpwjmcIto89yprUczyVnj0tSesl0BoTFpmujPAsX3Igbb/Tc5s/FjOGJMJ35/OtgCo3F9JmzsbD7OdptNiaOGYTwgMu74rJ3g4w4y4i5bIC2YMECbg5GdL3QNiM0ds1oU/GNdAAbtSPI/GD0N2kxTNfXegRHJiE1JhpBJn8ERQ3C7Q/egCSzCWEDp+LfloxDbGiIVg92L1+W43uNJhOMKs7x3KV0xVAB6nlBQSqGUnGUbHTYvZytP2AkRkR0NfgZEZmSiWk3zkTWoHiYLuOcGIN/CJIzR2PmnHmYO2smJozMQFRoYL/phb3e6dS1T0zKwKSgThx+fy02b9mKdSqJfeWFF/CXNz7E0ap2ONXz3E4bygp2472CNiRPm4lbF85E6K7V2LvtFNps8oyzqKAjJGYgbpi9APOmzcCopGyMHT4Dt9w4H3NGZSIm6NMZCEHh0Rg4OAtjJ07E+LGjMTA1BZlpqYhVT6ncW4EOz/Oo58ku3HLuuSSgcozU8uXLtenQl0oCVoPBqILWrimOXTf1tXS8eZ4jZEf/8z3PIEHqZVQcdrsdGzZswJtvvnnmOKqwsDDt9Yno2if7a1hb2tBQ1w6LtQlWW9fZEJ+j6oTA8ESMmT4Nk6dNwsQJ4zA8JRomvR5BCSNx17RMhF7BrJdubpcLlpYWWDva0NLagnObRF/C5JmI6KrQwWgKREhokDYSfVlNiATC/iaEhJkRbg5FkMnIHbX7FZ12HIe9Ro+BcbNw78MP46EHH8Ddi2/CyMBwOIubIWPLkjw3dRgxePB0jBuShoTkkZh3200wt7bC2uk8U2bkeSUH3sY///Eqlr3xJt5d9T7W712PtZs+wFtvvYllr/0dr3+wDsfLG2HXlsE6UFtVipy8GnSo15Gpwm63DgHRUciYkQKezNu7JJEdP3487r77bhw8eFBLoK1Wq+dR3/Luu+/i/fffx6233qptDhYaGup5hIiuVS6bFYXHt6O8tROOzjac2LAX7712AMdzP0JueZnnWYpqS9rqalBRVYN2m2rFZCZckBEllbk4XNMKp2dVip9BxS+B/lrcIq+Xs/NNvPry3/C3v3XfXsSKDzfgdPf3uO0oLziMFW/9q+vxt1bjQGkNjm7egryC/diwfRNKWy5zz4hexOSZiIjoi3K71P8HIjYhE6NGj9ZGH0dlD0daTBQCPRs9+RmDkDlkDKYNG4roIBP89AGIHjIWYxeMRmSwwZP0yjN1MAaGwhwejvDwCMQPTMHYWyZhzOR0RGn3hcMcGgST0TMa6Xag1a5H7NC5uOtLD+BhlbzL7dHHHsF9D2UjWJ5DvSogIEDbROyhhx7C9u3b8dZbb8Hp9K2hlGXLluHZZ5/FokWLtGnfMuJMRNc+R0cLDm18HScb2rSR5/aGZtRVtcHaUQ/LWUtN3KpdaywpxKm8QjRZ7V13qszRYm1VX9vO2rjyU3ZrPQoPLUOdww9h5q72ymQrRv6xD3C8vAo2aQ7t7Th0OhebytrhCjAjKiICwao9szY1wWJpQX1TI6wceSYiIrp2yc7Ypog6bNjwO3z78cfx+ONP4Jvf/zFe3rcP9TEh0CZZ6/y0dfByRm/3zAKd3oiAkEDoDQGIykxGSKB6TN0XN3gubrr5Vm1E8NbbbsPtS2/XNqjTvla3BdMnIi06DNrqAJ0BZn0H8rf9Hb/6rx/jhz/8YdftR/+Onz//Fxyt8d0e/GuZ0WjEiBEj8Oijj2Ljxo147bXXtF24+5pM1X7jjTfw5z//Gd///vcxd+5cLdknouuD02VBaX0nqgpV8qpzw+EswtYNf8Ky5UfR3HFWaui2o762BIf3nELx6WJ8uPwFfP8738azL61CY8sFZtO43Qg1h2H6/EVY4mmvFs+fiBEDZWRaZkbJc1zoNJmRPGEe5s2agKCybfizarteXnfSMzKt/seHmy0mz0RERF+Q3j8EmTffhR/836/w0x//GD9Wt58+/VP87NePYfHNg7xOnfYzxGHRn7+NMWlhWqItCfSna1nPczMaoD8zt9+E1LFz8f+e/g/85Gc/1X529+27X/kSMiO7n0e9Tc51l92rv/3tb2P37t3aFMW+TqDfeecdvP766/jRj36EJUuWaDuFE9F1oq0QqzZuQG3cdNSv3IQNB5th8BuAsRPvwaL5mQj2//RIPGt9PWpaDQhsasDJzScRlXkDnvzeU7j/thsQFnz+ekNaG52fH4xG2TT1rPbq7H0UdH7wayrHwfdewV/++iq2lhgw+Y5HcMvEVOhUYu10uXw5d+655JmbTfiWyz5vksiHsPzSxfhEe6PegykkHImpAzFwYPctFSnJMTDLec+ep12YHsHxEdpU7Msn07xDEJc04Kyf3XVLSYpDYB9ut9392b2eYwJJoGUa/2OPPYZDhw5pZzL3RQLtUgGpbAz2zDPP4JFHHtHWOMvoOF0eKctsk3yTXBvmHxfRWoJ//Os1rK1Jwzfv/xLmLg3FqjXrcazKouqCEAQFyVKgruTZ1liC/W+9gbYyFxY/9gBGJTYjZ9MuVfb9EWkOhp9KkM9H6pn8Q7vx5N03Y9asWZg9exZuvPt7eP6dIrR0eDY0VD9rxrjpeHzBNEyfMA6TpkzEuLEjcdP9d2P82HlYuvAWpIf3zXXsLj8XK0dXNXmW7c1ly/GOjg7tRr6j+7gMbQt51ZD3Jfn5Uk7kA+arm6hcrywWi7YuT66PfJ59gYyKyHtqbW3Vygz5Dikv0qvc13VKd1mVeo5BrW/p3mnaV+qTviKBppzF/Pjjj6O0tBQvv/wyysvLe628Skwmm4PJ8VlPP/20ths4E+crI+1je3u7dsQX+QaJDVpaWrQyLW2Sr5P6UNpNiYF7dS+EoBjMWfwo/uv+mYj0a4IuMAxzRkchbmg4xsyNQ2rSnRiVNgjOzjaUHjmBtshUDFkyCR0tFWg3RyMsKRAnc06grl2PCNm34zz5ZUB4MhY9uRx/+O1/48lH78SMWQ/iZ//zEv7n57/GwpGpCJBwQWdAVFImpowMg6XiALZ98jZ+/7On8O//8R/4ztcfxS//uQZ1fZBGSkxjs9m0ZSwXi2uuevIcGxurHdVQWVnJQNeHNDY2av/K9enrBlMKZEREhFZOampqGOz6CPm8VldXIyQkBPHx8RfsVexN0vOnbTahEmgJNCVgId8g5UXqebPZ3OfrJSWYlTIi9cnlHAtEPUvKSHFx8ZkOU1+oU/qSBPVyjrIk0GVlZdomYlVVVT0eK0niLDtqr1u3Dvfee6+2OZh0pNOViYqK0tqm3Nxczz3U1yThkesh16Y/nFEudYHsbN/U1KS1W71GH4jkxCREoR5blv0Ta/ccQnlxCcpKC1RSvBcffXIUZU2d0PsHIWXCTMy8ZRYc1cXYvH4XDh0vQHF5JU4d34+CgiIE+blV8nx29uyGo9OCpsZmuE2xSB00CGmZ6UhNTUeG+u+4iGA4O9ph6fh0ozG7um4O9YWc+xwUEqrFn6H+TtWON6PD0bu5geQiUh9Lh0Z0dPRFl7Pof654/vuqkB8uAbiMEmVmZl70h1PvkNGY/fv3a71ysvunFIq+nNYiP1t6bEtKSrT3lpGRcd2PSvgC6XGTXWHl+kyZMsVnGiApG9L5U1RUhLi4OO12vQfhvqC2thabN2/WPr9Dhgzp0045KQ8yDfb48ePajsGJiYksI31MYgEJCj/88EPteowZM4YJmyL1WUxMjBYkbtq0CRUVFSq4TO2RzgW5BhKLffTRR1i5cqW2q/a8efO0jmu6clLX5eTkaMmaxFSMX/qWlPP8/HysXbtW2/xO2iNfJ3GWdPQeOXJE+9ynpaX16gyulqqDePHjUtzy0EOYP3USxo4di8Fp8WiqPoHWoEQMTohQCa0RbmulKuuHEJI0DPMXLMCkCeMwbnw2OitOoNEVg8wBMdoZ9EJ27S47thZ/+cOfsGLVGqxbux5bNu7AgUN7sWf3VmxYvw7bDubAHRaPAQmxMKlft+H4MuzJL0dI7GAkxiWoujEa0SnDMGH8VGSlxsBk6L1cRa7Htm3btM5MOfNeOmIu5Konz5IsS2IkZxtK45CQkNCrBYI+S6aDFBQUYO/evUhJSdHWXflCh4b0uklBPXHihJakSTDBYLfvyGdWroV8brOzs7UdYn3lcyuNjCREMoIlCVt3oEl9Rz67a9as0Uaep06d2uczFeRnS7129OhRredY1vpKr76UHeobMktEglmZojxnzhztc8s6vkt3Ai31mpRZ6WSQWWHy9dUqs5JQSKejJM47d+7ELbfcoo04S1xGX4zEL9IRJOd3S90nsRXLdt+RDiKZWSExy+23394vOumkvMiMLRkUOHXqFJKTk7UZmb1VjnRuHTpKc1HZXI3TpwqQl5encoUKtDnMGDo8E/Fmz99Q1UetjRZUFFWgqFg9L18973QOGjuB5IzhGBhrPrNxpU79n39gGJLShmDMuAmYOHEyps+cjfnzZmDSxIlaR9P4saMxJG0Awj1Tvq01R1DW4kJAaBJCAoO0z5ZsLqazmxAdp+rEoN7pmJIYWDrfJQaWjt6RI0detFPsqifPcuHll5dRRdkYQ6b0SYGQN8FApvdIwynHUZw+fRoffPCBNm1LepylgfaF6yDlQcqJ9N5Kz5uMhksSLZUfy0nvkXIio/8nT57U1sJJZX7DDTcgMjLS84y+J+VBkmUpG1K5yZQa6RGUZIkBS++SHtnm5mbs2LFDm6UgU1Clx7qvO+S6y4gkBjIaJMGUJCdSnllGepeUEfn779mzR7tNnz5d2226r6f2+xpp/5KSkrS6VmIlGYGWWTXS6fNFy6zU6/X19Vrbv2vXLq3zQkbk5LXpi5P6RuoXaYu2bNmixVXSJjF+6V0yOCQdRNKRe+zYMdxzzz1aJ11/uQZSJ0qbJaPm0hEt5Ui+ls9/T/8OelMo0gbFwFJTgoo6i4oDHfAPiMHYiVOQNVDF4p6E2M8QoOqoCOg7W1FdV4dWVeYdLiOyJ89FdnoSAoyqzGvPVNR7NgaEIjY+UZtt1HVLQELCp18nxMWohPjTtdJ+hkAVUzjVrVPlKZ1aPKrtXYIQJA9Mhjn4UjbbvHJSV0p+JJ0HGzZs0PJViYHl34vRqW+86pPKpUBL0iabU0gjKsPfMrVPEmmZ7sLKpWdJ0ix/d+nx37dvn1a5SK/zuHHjfGp6kZQTSYZkOpm8LwnEpeKT3neWk54lH/vuclJYWKiNTEjP29KlS7VNbXxl1PlsUsHJNOGtW7dq5URmUUhl7Aub4F3rJCGSv3+dajxlhoJ8bqVnVnbr9aX1ZVKGpSzLmbpSNmQWhfwr01RZRnqWlBEJeiRpk844GVGV6ZOyMdXFpr9d7+RzJZ0MMr1dRp9karWMZF5pW92dOMuov9SXM2bMwOLFi7V2la4uaT9feeUVbfRQ6sL09HQt6Jb4hZ12PUdiR/ncSMIpI4WyLPGOO+7A7NmzfSrGvRRSb8rvIB1dUnako1HaLEmi5XdhHNwzumNgWc4q+aocIyifWzm6b/DgwV7jhR5JnoUUbtkQQ0YoJDiXQiCVd/cIUn8ghVZ+j/5UCcrllOlyUiCkYMi0eUlKfXVdsQS70vBI77gk+/IepZNFgt3+9HeXciLvvYc+TledVNiyxrm7nAwYMACTJk3S1t34YjnpJu9ZGhrpFJJyLvWJ1CsyisNGpud0NzJyk7/1qFGjtClYvrgxi4wGHT58WGsMZXq51CVSp8joOMtIz5EyIn9vKSNCOlek7ZHEmX/3i5MyKwm0JLwy+nzzzTdrSw8utw2U9kc6uOR15DMge1fIqDMT554hf29ZSiQjVrI8TtpOGd3vTnzo6pO/uXTSST0jnRfSeS5lfPjw4T6xJPFKyO8jndLSZsneHfJ7dG/EKfWq3PpLbOmNxA++cJ0kZj87Bpb6VupLiYUv5bPbY8mzkJeWALd7Tr9sJCa9Rf2lEMh7lUB92LBhPhkkno8EKdJ7IlOKZMO2QYMGaQ2nLyeikshJ0CWdLDLlUtZ/adM2+kk5kTIuPZ/SY9hfNsSRciIVmEwTkl426TGXBr8/BLnS4SIjK1KnSMAi04ilDPWX8tIfSf0h5UNGxIYOHaqt8/PlDgspIzLjRsqITImTHU2lsaSeI2VEOrMk+JA2Uzpu2al16STekE5kGYGSz5mMgMi/lzrYIPWfJM6yo7bELbIXgYzESRBOPUuunZwGIVOH5d/+FOf2R/KZkJhc4lupa66FDjppn6QzQKYPS7slSbQkdRLrSHzc38uT7IYu+5HI6Lpcs77uXOqOgaWzsjsGlvbrUstRjybPZ5PgVpIMyfT7QxAj71d6gX73u99pRzvceuut/WLEXC68jLRcjXVTfaE7kZZyIv/dH8h6m+eeew7f+973tB7Q/vB3l/co5aR7fU1/JY2L9BxKxcxgpedIh5yUFekJ729BCstI75AyIsGH1Ct0ZaTdk2UpMnIsS1NkurV0RniLPaRcS7Atu3fLlHnZh2DmzJnaZ5Z6j8QsMotAYhh21vUMaX+kU06SsP4cu1yMdP5KIi2dMFInXAttl7TB69ev12II6RiUtqIvSZ3aHQNfSUzTa8lzfyO9Pf/93/+Nv//971rv7fPPP6+tRyI6m/T0f//738fbb7+NO++8E7/5zW+0ERciIqLLJcGyLEuRQFNmBkmgKRuLXShRkIRNRnTk+TJ7Sza7kVlQ7MQgIl8hM8HeeecdLVG96667+v3mhddmt80XJL0+Bw4c0I54kCmh3T3BMoJB1E16lmVjIlnvJL3NUkZkB2KWEyIiuhKS9Mr+E7LJp8QfEnBKMi1LDyQ26Sbtj8zmk6UrsummnFwhU7UvKXF22VFWnoc9h3dh68cr8eGmXShvs8PldqGtqQb7t6/HB6vXYf+xYrTbOIJKRF+MjNNKR9+1Ml571Y+quhbIBhAvvviidgSBrL2VqRPSUMlicpkq0t+mLVLPkLVNf/jDH7QztKV8SDmRNRQS+HCDFiIiuhKyHlDW4slaTjn2U/bUkHWQMpVTOmplxpPsZt49Qi1J9cKFCy99xNneju1r/4U3d5UgPsiJQ3sPI68pDINTDTiwZSPWH6iAy9aEwtNlaPYLRGJCFPy7z5YhIrpMUm/JkhLJn/rz5m7dOPJ8DukVkc02tm3bpiXO3fPyJUGS9UT9ZR0u9SwJVmRzFykXUmYk2JEEWkae5X4iIqIrJW2KbKxz++23a4mxrNGTs/ifffZZ/Pa3v9U2FpORaVlDKJ21cnTfJW9Y6XKipdkCR+RITJu7CFOiXKhcvwml5XnIUwFu+swFuHn+FAyKb8LRgr0oaeZsKiKibkyezyFTo2SadnR0NO6//35tFPGxxx7Tdr2U5Fl2giaS9RtSHmQt2sMPP6wFLl/72te0mQkyfVs2byEiIrpSkjBLGyNHft1zzz1aG/PAAw9osclXv/pV7UgrOV5QOnAve0NTQyBCIxMQGxOPhDB/+Lc2ob2uGa56B4YMH4gB6ucmJ8dCp6LE9k5O3SYi6sbk+RySPEtv7w9/+EN861vf0rYw//rXv45f/vKXmDZtmrYxB5F0oowbNw4/+9nPtM4VORbsBz/4Af7zP/9TOwNXzjgnIiL6orqncWdnZ2u7aMumYHKOtmwodjV2HNZWIaqX8QsxwW5yoaKqAw67Dc31DbBabfA3MFQkIurGGvEc0ssrx1JNnz5da5ikNzcyMlJrsO677z7tjFMiOV9QdgyUciJnaks5keBm7ty52qiAJNNERERXkyTScvti3LDbO9Fh7xpRdqn/lmVqgQmZiI6Lxvsv/BmvLn8fa3a0IS56NNIi/bXnERERk+fPkfPjZAt1+VfIdCi5ydeyruiS1xTRNU3WmXWXk7M3kJNNEMxmM8sJERH5JkMARo6ZgYUj46FTYWDcmBsw7855SI5MwoI7lmDRyADU1tgwbuY83DM/G6F6bhZGRNSNyTMRERHR9cIQiBFjp2PRiAT1hSTPMzFv6VxEGw2IjB+EJV96FN/99teweO5oRAYYVYJNRETdmDwTERERXTd00OsNMHhGlHXy3ypxlq90Oj8Y/U0ICDDBaNAzcSYiOgeTZyIiIiIiIiIvmDwTERERERERecHkmYiIiIiIiMgLJs9EREREREREXjB5JiIiIiIiIvKCyTMRERERERGRF0yeiYiIiIiIiLxg8kxERERERETkBZNnIiIiIiIiIi+YPBMRERERERF5weSZiIiIiIiIyAsmz0REREREREReMHkmIiIiIiIi8oLJMxEREREREZEXTJ6JiIiIiIiIvGDyTEREREREROQFk2ciIiIiIiIiL5g8ExEREREREXnB5JmIiIiIiIjICybPRERERERERF4weSYiIiIiIiLygskzERERERERkRdMnomIiIiIiIi8YPJMRERERERE5AWTZyIiIiIiIiIvmDwTERERERERecHkmYiIiIiIiMgLJs9EREREREREXjB5JiIiIiIiIvKCyTMRERERERGRF0yeiYiIiIiIiLxg8kxERERERETkBZNnIiIiIiIiIi+YPBMRERERERF5weSZiIiIiIiIyAsmz0REREREREReMHkmIiIiIiIi8oLJMxEREREREZEXTJ6JiIiIiIiIvGDyTEREREREROQFk2ciIiIiIiIiL5g8ExEREREREXnB5JmIiIiIiIjICybPRERERERERF4weSYiIiIiIiLygskzERERERERkRdMnomIiIiIiIi8YPJMRERERERE5IXOrXj+m85RVlaGX//613jqqaeQmprquZfos0pKSvDDH/4Qv/vd7xAaGuq5l4iIqOdYrVasWrUKLS0teOKJJ2A0Gj2PEBH5joaGBqxYsQJ+fn64++67+32szOT5Ipg806WQcvLkk09iwYIFCAoKAj9SRETU02w2G06cOIHMzEw89thjTJ6JyCcxeb6OMHmmS9Ha2op33nlHS5qlYiAiIupp0uY4nU6MGDEC48aNg16v9zxCROQ7mDxfR5g806WQj5DFYoHdbvfcQ0RE1PMkGA0ICIC/v7/nHiIi38Lk+TrC5JmIiIiIiOjKXGvJM+eYEhEREREREXnB5JmIiIiIiIjICybPRERERERERF4weSYiIiIiIiLygskzERERERERkRdMnomIiIiIiIi8YPJMRERERERE5AWTZyIiIiIiIiIvmDwTERERERERecHkmYiIiIiIiMgLJs9EREREREREXjB5JiIiIiIiIvKCyTMRERERERGRF0yeiYiIiIiIiLxg8kxERERERETkBZNnIiIiIiIiIi+YPBMRERERERF5weSZiIiIiIiIyAsmz0REREREREReMHkmIiIiIiIi8oLJMxEREREREZEXTJ6JiIiIiIiIvGDyTEREREREROQFk2ciIiIiIiIiL5g8ExEREREREXnB5JmIiIiIiIjICybPRERERERERF4weSYiIiIiIiLygskzERERERERkRdMnomIiIiIiIi8YPJMRERERERE5AWTZyIiIiIiIiIvmDwTERERERERecHkmYiIiIiIiMgLJs9EREREREREXjB5JiIiIiIiIvKCyTMRERERERGRF0yeiYiIiIiIiLxg8kxERERERETkBZNnIiIiIiIiIi+YPBMRERERERF5weSZiIiIiIiIyAsmz0REREREREReMHkmIiIiIiIi8oLJMxEREREREZEXTJ6JiIiIiIiIvGDyTEREREREROQFk2ciIiIiIiIiL5g8ExHRZ7jdbrhcLjidTt56+CZ/Z/l7ExERke/TqUabrfYFlJWV4de//jWeeuoppKameu4lIro2SXNgsVjQ0tKi3Ww2GxO7HqTT6WAwGBAcHIzw8HCEhITAz4992kREdO1oaGjAihUrtPbt7rvvRmhoqOeR/onJ80UweSai64XD4UBpaSn27duHiooKtLe3ayOjbCJ6ll6vh8lkQlxcHLKzszF48GAEBgZ6HiUiIurfmDxfR5g8E9H1QJLkI0eOYPXq1aipqTmTxEVHR2vJHfUMmbItI/ynT5/G8ePH0dTUhEWLFmHmzJnaKDQREVF/x+T5OsLkmYiudd2JszRsERERWLhwIYYNG8bpw71ImuGqqiq89957OHnyJObNm4f58+cjICDA8wwiIqL+6VpLnhkdERFdx4qKivDSSy8hOTkZDz30EIYPH87EuZfJ2ueEhAR8+ctfxty5c/Hhhx/iwIED2sg0ERER+Q5GSERE16nOzk6sX79e2xjsjjvuQExMjOcR6gsy0jxnzhwMHToUy5cv13rriYiIyHcweSYiuk7V19dr04SXLl2K2NhYz73Ul2TnbVn3LNO4T506xdFnIiIiH8LkmYjoOlVdXa2teZ4wYYLnHuprMoU7MTFRW3een5+v7YJOREREvoHJMxHRdUqmBctIZ3/fvONaYzQakZ6ejrq6Oq1zg4iIiHwDk2ciouuUrHn29/f3fEW+Qkaf5axnu93Oc7aJiIh8CJNnIiIiHyMJNBNnIiIi38LkmYiIiIiIiMgLJs9EREREREREXjB5JiIiIiIiIvKCyTMRERERERGRF0yeiYiIiIiIiLxg8kxERERERETkBZNnIiIiIiIiIi+YPBMRERERERF5weSZiIiIiIiIyAsmz0RE9AW5tZv8b791OW9ee26//m2JiIjoCjB5JiKiS+SG3WZFa0sTGhsb0dLWjk5rM6qLjqOyshQHS+tgd34+qXS7nXDYO+C6QL4pj7W1NGuvefatxdIJp9tbkurWvr/7PZ25NbfA0mk/8zPdLod6zqc/o6mpDZa2RpTV1qK5qQE1RTXodLi6nnwOp70Tdodd/R5uWFsaUZLfgObGAlTVV8Jx9ttTjzvtNjicntdxu9BhaUR5XS0aOxxd9xEREVG/xeSZiIgujb0d5QWHsGXzRmzashV7j+agqvwUdr3/J+zY/gmeWXsQrTan58nd3Ohsr0Nh3j40ddg9953NhbrC49i1ZR02b96MrVu3dt22bcWB/HJY7V6SZ2cnaktPYvvW9di4eQu2bFE39f4+WfsxdueXod0u70cl/a0VeHftBu05mzepx1duRE7+CWw8cBAFp45jz3t71fs7f4JbV3IMxaWF6LDbUXc6Bx+9eQz5OW9j1+HtsJ7160riXFOkkuqGpq5xabcdtVW52Hj4EE7WWbXnEBERUf/F5JmIiC6NvQWFx3fio49WYcO23cjLO4ndO3fiYH4N2jo60W6zq6TxnGRXktv83Xj99ZXIKWvx3Hk2l3o8F+WlFXDq9PD39++6Gf1hNPhBp/M87ULsbairyENhVQ3sOqPne92oKjmIPadL0dLZlTx3Nhbj1UPlcOqNMOodKNy0FiV1TSg6vg+bt+1FWZtVvZPz/7CKU7twJOcEWjts6u12oLJ4PzZtOYrKps8m23ZrO/J3b8XxvDK01Jdg56aP8fG6bcgrqcUFBrWJiIioH2Hy7IXOa+RGRHSdcLuh0+sRbA5H/IBUpCdEoLmmApWNNrjckuh+tklx2ttVonkax7aXodESiZMHclFcUQfbOZmk2+WCy+mE0+mAw9F9MyI6NAwmg5c6WL0nvUq0oxMHYmjWCIwYoW7DszAwOVIl0Z7vVfm8ltKnjMKcBQuw4MbZGJFolDeIpqpS5J0uQYv8btqTz+JyoL2pCqUWN8qKraip7YDT7UJ7axny82thsanf2fNUuJ2wttSisKwKp48U4XRpGU7lHMOxkwVobLZ67wQgIiIin8fk+RIwgSaia5GfnyS8l1O/uaA3BSA2MQVJMZFw+IVh3IwbMGWwGSY/N1xnFhg7UXd6K7Zv34T9ucUwJU3F1x69A4nGRhzeuQX7Dx1AWV2LejXtySr/dcDa3oqG+nrU1dVpt/r6Rlg7HeeOY3+ewQR/UxDaq0twcPcO9TO3Y/uOvSiudiMiKEQl36qZU7+iTiW9nUVHsHnDJmzatBXHyjoAYwAGTZyDpUvmIdVo0NY0n6F+h6baYmw/cBA1AemINAZh574C5Fd2Im7ALCy9fQwSzI6uNdXq+yx15cjddgiIGYk4gx2lec0YM/1mPHDfEmQNipVfk4iIiPo5nQoW2KRfQHl5OZ566ikMHjwYERERnnuJiK4NOTk5CA4Oxq9+9SsYjUbPvRdha8bJIzux52gJOp0GBEUmYczIZNhLDwORqdjTHon7Jw5GsMGFkgNvYnepSk6HT8Dg5CQEmdxoq69Bce5JVHd0IiFzAoamxEIPOw6ufBWf7D6OzsAo9T4MntFcP8RlTcet8yYiKvg8701GgBtKcGD3ZpXg5qOySkaCXfDT6bQk2O1nQHhCCgZOmot7ZmQj1FqM597aALPBAH+9Cx1NIZhx+wRtTXVygBH1ea1InTEcYSZ91+u77KgqK8DRynbEJaYgGhYcOt0Es/o9HA1h6vfKQY0lBlmDJ8DPUo8D77yJwo5YjLtxLiL8GlFZVILA+AT4GRuwJa8R6UNn4IbU0K7X9sJut2PVqlXa9fnOd76DoKAgzyNERET9S0NDA1asWKF12N99990IDb20ttBXMXm+iObmZixbtgylpaXaBSciulbIiHNeXh4SExPxzDPPXFryLLtHt9Yjd98+7DueiwY7EBISBAMc2nTmxgGT8K15YxDsr4O1uQIt9kBERUZBBn+7OTotaLO0Qx9gRkigv0qUXag4vgPbdh9EZYuMNH86Eh6ZMQk3zx5/0eR5/65N2J9TqZJlI9xt7agtbkdwYgwi4gLVU3TwHzIRS6eNQlQAUF9Xh/yDG7D9WCV0hmCYwwK0RNsAo0qQR2DanFGfJs8yUt3ZCbtbB2dzDU7nHcbR09WwdLrh5wpCdHIGxo7PQEp8FBxtDcjZuh3ujBEI7GxB7rHjqGlrgdOlfpuQAPgnDMWk7DEYIm/iEnhLnrubbc6KIiIiX8fk+Tricrm0C97e3u65h4jo2iCJ18aNG7UE+umnn7605FlxO+1oLC1CXnE5WjplrbM0IW40Vh7FP9uH4rWvLESIvQYfrtuB9vPuri2CkZiWheGDI1BbcAwn8orQ0GqB3eH6zOxmvb9KvlMGY8bMGUg4z+CrS70XS0MRTufvRashFuG2QJzeXo3YicORnh0DSYN1pkCEBQZA7yeJphs1pw+qJLhem2IudbzbbUdzRYVKxONx8xOLEBdyzt/BXoctn2xCabMN4ZHhMPipV1W/c21BCQxZk7FkZjYCdU7YLG1oaTiBLRuPwx0yACEh6mdDvXZzFSzGeEycNAvDEkPO6hq4sIslz1arVbtmIjMzE4GBgdp/ExER+SImz9ch+ROxh5+IrjUffvghdu/ejZ/85CeXnDxLAupyOOFwOj2Js9zlQsXJj/G9fQF46cF5CO2sxJsr16LVYut6/HNCkTp4LMZlR6Hy5H4czi2B5QJHUgXGDcLchQuQEtz1tb2jHTlH81DSHoH5s1Lh11KEU0dWo86YiszkcbCVWxAYH4mw2CAYDAYY9HpVf3d9r3A6bHCclaS7XVaUH9uLA+stmPHNRUgI9fc84mGrwIpXlqPJnIHZM8YhMtik7mzF+pdfQm7CHHzzrpkINcjr2FRCvR4r3j+FEXPvwsiB6g272pF3aC125lsxYd69mJwefsXJs1P9vWUW1OrVq3H48GHMmTMHixcv1qbdExER+Somz0REdE24suT5PNxOVOdtxW+OGvD0zZNhNjpR39CsTVs+Pz1MAcEIDjLAZm2HpaOza+Ot8/AzBsAcboa/Z+q33dqKI7sO4lRjIBbfMQHBlkoc2bkC63bno9MvAUZPeqozhSBrymxMH50Jc4DKbi/A7epAde5hHNluwdgvTUf0uVPE3Z0oObwXB48fRmFNOzpt6o26TTCYBmDaTVMxfkgCujYEd8HaUom9m/ZpI+ktjg746XUIjQ7HwBETMWrIcMSHXtrfuDt5PnHiBJYuXYra2lqcPHkS69atw4EDB5CQkIAHH3wQw4cP55IiIiLyaW1tbdpmntJ23XfffUyeiYiof7pqybNiszSiuF2HtCgzDNoU6Z7hcFhRVlqG+o5QjBoWD4PLhpaGCpRV1qPDruuaJSTNmp8/IuKTkBijEm/9RRJMWdtsbUN7kxOhceEwqoT3XC6bBQ11Faiqa/Mcs+UPc1QykhNDYTJ61kgrbpcTluYmVFZWoKXDDp1KbEMiIhEXn4BgfyPO89LnJcnzBx98oN2kiT5y5IjWcy9JtMlkwpgxYzBkyBBtZJ2IiMiXyRIpaZvnzp2LBQsW9PvlRkyeiYiuU1czeVapozZ6LLtd9yRpsuQ8aJdbD39jV1LsVgmwrGH+THOm3oefzg9+l5LIq++T77zY8pzP/gz12ioxPu9rq8clUNCmtGvvoeu5l0OS55UrV+LPf/4zKioqUFxcrG1eJoYOHYof/OAH2rRtNt9ERNQf6PV6mM1mbdS5vy+FZfJMRHSdurrJM10t3dO2d+zYgcmTJ2PDhg1Yu3YtCgsLERMTo62D/vrXv47w8HDPdxAREfm2a2X/KCbPRETXKSbPvunsDcOefPJJbdT50KFDWL58ubbuOS0tTdshfdq0aVzzTERE1IvY6hIREfkoWdcso83z58/H//7v/+L//u//tORZOj3q6+s9zyIiIqLewOSZiIioHwgLC8ONN96In//859ou3P19x1IiIqL+hskzERFRPyGbriQlJWmjzwEBAZ57iYiIqDcweSYiIiIiIiLygskzERERERERkRdMnomIiIiIiIi8YPJMRERERERE5AWTZyIiIiIiIiIvmDwTERERERERecHkmYiIiIiIiMgLJs9ERNcpPz8/uFwuz1fkK9xut3Zd5PoQERGR72DLTER0nQoNDUV7ezscDofnHvIFkjhXV1cjJCSECTQREZEPYatMRHSdiomJQUdHB0pKSjz3kC+Qa3L48GGkpKTAaDR67iUiIqK+xuSZiOg6FRcXh6ioKHz00Uew2Wyee6kvyajznj170NzcjKysLI48ExER+RC2ykRE1ymZtj1//nxs27YNmzZtgt1u9zxCfUVmAXzyySe46aabkJSUBJ1O53mEiIiI+hqTZyKi65SMao4fPx5LlizBa6+9hp07d2qbVVHvk797XV0dXnnlFSQkJOCWW26ByWTyPEpERES+QKcabEZKRETXsba2NixbtkwbgV60aBEmTZqE2NhYbb0tRz57Tveu2o2NjTh06BDee+89JCcn4+GHH9b+5d+eiIjItzB5JiIibY2trLXdvn279t+y07PZbOaGVT3I6XSipaVF67wwGAwYM2YM5syZo61D51pnIiIi38PkmYiINHJklSRztbW1KC8vR0VFBddB9yC9Xq8lyrKrtux8HhERAX9/f444ExER+Sgmz0RE9BnSLHQ3DWwiek53kiz/MmEmIiLyfUyeiYiIiIiIiLzgoioiIiIiIiIiL5g8ExEREREREXnB5JmIiIiIiIjICybPRERERERERBcF/P8Wo+CpCR821QAAAABJRU5ErkJggg==;" vertex="1" parent="WIyWlLk6GJQsqaUBKTNV-1">
          <mxGeometry x="310" y="-160" width="615" height="228.97" as="geometry" />
        </mxCell>
        <mxCell id="xYpHXJlWxtJXdxh6Vq43-26" style="edgeStyle=none;curved=1;rounded=0;orthogonalLoop=1;jettySize=auto;html=1;exitX=0.5;exitY=1;exitDx=0;exitDy=0;entryX=0.5;entryY=0;entryDx=0;entryDy=0;fontSize=12;startSize=8;endSize=8;" edge="1" parent="WIyWlLk6GJQsqaUBKTNV-1" source="xYpHXJlWxtJXdxh6Vq43-1" target="WIyWlLk6GJQsqaUBKTNV-3">
          <mxGeometry relative="1" as="geometry" />
        </mxCell>
        <mxCell id="xYpHXJlWxtJXdxh6Vq43-1" value="사용자" style="rounded=1;whiteSpace=wrap;html=1;fontSize=10;" vertex="1" parent="WIyWlLk6GJQsqaUBKTNV-1">
          <mxGeometry x="240" y="200" width="80" height="40" as="geometry" />
        </mxCell>
        <mxCell id="xYpHXJlWxtJXdxh6Vq43-11" style="edgeStyle=none;curved=1;rounded=0;orthogonalLoop=1;jettySize=auto;html=1;exitX=1;exitY=0.5;exitDx=0;exitDy=0;entryX=0;entryY=0.5;entryDx=0;entryDy=0;fontSize=12;startSize=8;endSize=8;" edge="1" parent="WIyWlLk6GJQsqaUBKTNV-1" source="xYpHXJlWxtJXdxh6Vq43-3" target="xYpHXJlWxtJXdxh6Vq43-4">
          <mxGeometry relative="1" as="geometry" />
        </mxCell>
        <mxCell id="xYpHXJlWxtJXdxh6Vq43-3" value="채팅입력" style="rounded=1;whiteSpace=wrap;html=1;fontSize=10;" vertex="1" parent="WIyWlLk6GJQsqaUBKTNV-1">
          <mxGeometry x="360" y="280" width="80" height="40" as="geometry" />
        </mxCell>
        <mxCell id="xYpHXJlWxtJXdxh6Vq43-12" style="edgeStyle=none;curved=1;rounded=0;orthogonalLoop=1;jettySize=auto;html=1;exitX=1;exitY=0.5;exitDx=0;exitDy=0;entryX=0;entryY=0.5;entryDx=0;entryDy=0;fontSize=12;startSize=8;endSize=8;" edge="1" parent="WIyWlLk6GJQsqaUBKTNV-1" source="xYpHXJlWxtJXdxh6Vq43-4" target="xYpHXJlWxtJXdxh6Vq43-5">
          <mxGeometry relative="1" as="geometry" />
        </mxCell>
        <mxCell id="xYpHXJlWxtJXdxh6Vq43-4" value="Flask" style="rounded=1;whiteSpace=wrap;html=1;fontSize=10;" vertex="1" parent="WIyWlLk6GJQsqaUBKTNV-1">
          <mxGeometry x="480" y="280" width="80" height="40" as="geometry" />
        </mxCell>
        <mxCell id="xYpHXJlWxtJXdxh6Vq43-15" style="edgeStyle=none;curved=1;rounded=0;orthogonalLoop=1;jettySize=auto;html=1;exitX=1;exitY=0.5;exitDx=0;exitDy=0;entryX=0;entryY=0.5;entryDx=0;entryDy=0;fontSize=12;startSize=8;endSize=8;" edge="1" parent="WIyWlLk6GJQsqaUBKTNV-1" source="xYpHXJlWxtJXdxh6Vq43-5" target="xYpHXJlWxtJXdxh6Vq43-8">
          <mxGeometry relative="1" as="geometry" />
        </mxCell>
        <mxCell id="xYpHXJlWxtJXdxh6Vq43-5" value="욕설 데이터로 &lt;br&gt;사전 학습된 &lt;br&gt;KcELECTRA 탐지 모델" style="rounded=1;whiteSpace=wrap;html=1;fontSize=10;" vertex="1" parent="WIyWlLk6GJQsqaUBKTNV-1">
          <mxGeometry x="600" y="280" width="120" height="40" as="geometry" />
        </mxCell>
        <mxCell id="xYpHXJlWxtJXdxh6Vq43-13" style="edgeStyle=none;curved=1;rounded=0;orthogonalLoop=1;jettySize=auto;html=1;entryX=0.5;entryY=0;entryDx=0;entryDy=0;fontSize=12;startSize=8;endSize=8;" edge="1" parent="WIyWlLk6GJQsqaUBKTNV-1" source="xYpHXJlWxtJXdxh6Vq43-6" target="xYpHXJlWxtJXdxh6Vq43-5">
          <mxGeometry relative="1" as="geometry" />
        </mxCell>
        <mxCell id="xYpHXJlWxtJXdxh6Vq43-6" value="비속어 라벨링 &lt;br&gt;데이터 추가 및&lt;br&gt;&amp;nbsp;fine tunning" style="rounded=1;whiteSpace=wrap;html=1;fontSize=10;" vertex="1" parent="WIyWlLk6GJQsqaUBKTNV-1">
          <mxGeometry x="600" y="200" width="120" height="40" as="geometry" />
        </mxCell>
        <mxCell id="xYpHXJlWxtJXdxh6Vq43-31" style="edgeStyle=none;curved=1;rounded=0;orthogonalLoop=1;jettySize=auto;html=1;exitX=1;exitY=0.5;exitDx=0;exitDy=0;entryX=0;entryY=0.5;entryDx=0;entryDy=0;fontSize=12;startSize=8;endSize=8;" edge="1" parent="WIyWlLk6GJQsqaUBKTNV-1" source="xYpHXJlWxtJXdxh6Vq43-7" target="xYpHXJlWxtJXdxh6Vq43-30">
          <mxGeometry relative="1" as="geometry" />
        </mxCell>
        <mxCell id="xYpHXJlWxtJXdxh6Vq43-7" value="&lt;font style=&quot;font-size: 10px;&quot;&gt;욕설 데이터로 &lt;br&gt;사전 학습된 &lt;br&gt;KoBART 생성 모델&lt;/font&gt;" style="rounded=1;whiteSpace=wrap;html=1;fontSize=10;" vertex="1" parent="WIyWlLk6GJQsqaUBKTNV-1">
          <mxGeometry x="880" y="280" width="120" height="40" as="geometry" />
        </mxCell>
        <mxCell id="xYpHXJlWxtJXdxh6Vq43-19" style="edgeStyle=none;curved=1;rounded=0;orthogonalLoop=1;jettySize=auto;html=1;exitX=0.5;exitY=1;exitDx=0;exitDy=0;entryX=0.5;entryY=0;entryDx=0;entryDy=0;fontSize=12;startSize=8;endSize=8;" edge="1" parent="WIyWlLk6GJQsqaUBKTNV-1" source="xYpHXJlWxtJXdxh6Vq43-8" target="xYpHXJlWxtJXdxh6Vq43-18">
          <mxGeometry relative="1" as="geometry" />
        </mxCell>
        <mxCell id="xYpHXJlWxtJXdxh6Vq43-21" style="edgeStyle=none;curved=1;rounded=0;orthogonalLoop=1;jettySize=auto;html=1;exitX=1;exitY=0.5;exitDx=0;exitDy=0;fontSize=12;startSize=8;endSize=8;" edge="1" parent="WIyWlLk6GJQsqaUBKTNV-1" source="xYpHXJlWxtJXdxh6Vq43-8" target="xYpHXJlWxtJXdxh6Vq43-7">
          <mxGeometry relative="1" as="geometry" />
        </mxCell>
        <mxCell id="xYpHXJlWxtJXdxh6Vq43-8" value="&lt;font style=&quot;font-size: 10px;&quot;&gt;비속어 &lt;br style=&quot;font-size: 10px;&quot;&gt;판단&lt;/font&gt;" style="rhombus;whiteSpace=wrap;html=1;fontSize=10;" vertex="1" parent="WIyWlLk6GJQsqaUBKTNV-1">
          <mxGeometry x="760" y="266.25" width="70" height="67.5" as="geometry" />
        </mxCell>
        <mxCell id="xYpHXJlWxtJXdxh6Vq43-14" value="&lt;font style=&quot;font-size: 10px;&quot;&gt;탐지모델 학습&lt;/font&gt;" style="text;html=1;strokeColor=none;fillColor=none;align=center;verticalAlign=middle;whiteSpace=wrap;rounded=0;fontSize=16;" vertex="1" parent="WIyWlLk6GJQsqaUBKTNV-1">
          <mxGeometry x="610" y="242.5" width="50" height="30" as="geometry" />
        </mxCell>
        <mxCell id="xYpHXJlWxtJXdxh6Vq43-32" style="edgeStyle=none;curved=1;rounded=0;orthogonalLoop=1;jettySize=auto;html=1;exitX=1;exitY=0.5;exitDx=0;exitDy=0;entryX=0;entryY=0.5;entryDx=0;entryDy=0;fontSize=12;startSize=8;endSize=8;" edge="1" parent="WIyWlLk6GJQsqaUBKTNV-1" source="xYpHXJlWxtJXdxh6Vq43-18" target="xYpHXJlWxtJXdxh6Vq43-23">
          <mxGeometry relative="1" as="geometry" />
        </mxCell>
        <mxCell id="xYpHXJlWxtJXdxh6Vq43-36" style="edgeStyle=none;rounded=0;orthogonalLoop=1;jettySize=auto;html=1;exitX=0.5;exitY=1;exitDx=0;exitDy=0;entryX=1;entryY=0.5;entryDx=0;entryDy=0;fontSize=12;startSize=8;endSize=8;" edge="1" parent="WIyWlLk6GJQsqaUBKTNV-1" source="xYpHXJlWxtJXdxh6Vq43-18" target="xYpHXJlWxtJXdxh6Vq43-33">
          <mxGeometry relative="1" as="geometry">
            <Array as="points">
              <mxPoint x="795" y="500" />
            </Array>
          </mxGeometry>
        </mxCell>
        <mxCell id="xYpHXJlWxtJXdxh6Vq43-18" value="&lt;font style=&quot;font-size: 10px;&quot;&gt;성적, 패륜&lt;br style=&quot;font-size: 10px;&quot;&gt;판단&lt;/font&gt;" style="rhombus;whiteSpace=wrap;html=1;fontSize=10;" vertex="1" parent="WIyWlLk6GJQsqaUBKTNV-1">
          <mxGeometry x="760" y="380" width="70" height="67.5" as="geometry" />
        </mxCell>
        <mxCell id="xYpHXJlWxtJXdxh6Vq43-20" value="&lt;font style=&quot;font-size: 10px;&quot;&gt;YES&lt;/font&gt;" style="text;html=1;strokeColor=none;fillColor=none;align=center;verticalAlign=middle;whiteSpace=wrap;rounded=0;fontSize=16;" vertex="1" parent="WIyWlLk6GJQsqaUBKTNV-1">
          <mxGeometry x="820" y="272.5" width="60" height="30" as="geometry" />
        </mxCell>
        <mxCell id="xYpHXJlWxtJXdxh6Vq43-22" value="&lt;font style=&quot;font-size: 10px;&quot;&gt;NO&lt;/font&gt;" style="text;html=1;strokeColor=none;fillColor=none;align=center;verticalAlign=middle;whiteSpace=wrap;rounded=0;fontSize=16;" vertex="1" parent="WIyWlLk6GJQsqaUBKTNV-1">
          <mxGeometry x="780" y="333.75" width="60" height="30" as="geometry" />
        </mxCell>
        <mxCell id="xYpHXJlWxtJXdxh6Vq43-37" style="edgeStyle=none;rounded=0;orthogonalLoop=1;jettySize=auto;html=1;exitX=0.5;exitY=1;exitDx=0;exitDy=0;entryX=1;entryY=0.5;entryDx=0;entryDy=0;fontSize=12;startSize=8;endSize=8;" edge="1" parent="WIyWlLk6GJQsqaUBKTNV-1" source="xYpHXJlWxtJXdxh6Vq43-23" target="xYpHXJlWxtJXdxh6Vq43-33">
          <mxGeometry relative="1" as="geometry">
            <Array as="points">
              <mxPoint x="940" y="500" />
            </Array>
          </mxGeometry>
        </mxCell>
        <mxCell id="xYpHXJlWxtJXdxh6Vq43-23" value="&lt;span style=&quot;font-size: 10px;&quot;&gt;&quot;출력불가&quot;&lt;br&gt;대체문구&lt;br&gt;&lt;/span&gt;" style="rounded=1;whiteSpace=wrap;html=1;fontSize=16;" vertex="1" parent="WIyWlLk6GJQsqaUBKTNV-1">
          <mxGeometry x="900" y="393.75" width="80" height="40" as="geometry" />
        </mxCell>
        <mxCell id="xYpHXJlWxtJXdxh6Vq43-25" value="&lt;font style=&quot;font-size: 10px;&quot;&gt;YES&lt;/font&gt;" style="text;html=1;strokeColor=none;fillColor=none;align=center;verticalAlign=middle;whiteSpace=wrap;rounded=0;fontSize=16;" vertex="1" parent="WIyWlLk6GJQsqaUBKTNV-1">
          <mxGeometry x="830" y="380" width="60" height="30" as="geometry" />
        </mxCell>
        <mxCell id="xYpHXJlWxtJXdxh6Vq43-29" style="edgeStyle=none;curved=1;rounded=0;orthogonalLoop=1;jettySize=auto;html=1;exitX=0.5;exitY=1;exitDx=0;exitDy=0;entryX=0.5;entryY=0;entryDx=0;entryDy=0;fontSize=12;startSize=8;endSize=8;" edge="1" parent="WIyWlLk6GJQsqaUBKTNV-1" source="xYpHXJlWxtJXdxh6Vq43-27" target="xYpHXJlWxtJXdxh6Vq43-7">
          <mxGeometry relative="1" as="geometry" />
        </mxCell>
        <mxCell id="xYpHXJlWxtJXdxh6Vq43-27" value="비속어 순화 &lt;br&gt;데이터&amp;nbsp;추가 및&lt;br&gt;&amp;nbsp;fine tunning" style="rounded=1;whiteSpace=wrap;html=1;fontSize=10;" vertex="1" parent="WIyWlLk6GJQsqaUBKTNV-1">
          <mxGeometry x="880" y="200" width="120" height="40" as="geometry" />
        </mxCell>
        <mxCell id="xYpHXJlWxtJXdxh6Vq43-28" value="&lt;font style=&quot;font-size: 10px;&quot;&gt;생성모델 학습&lt;/font&gt;" style="text;html=1;strokeColor=none;fillColor=none;align=center;verticalAlign=middle;whiteSpace=wrap;rounded=0;fontSize=16;" vertex="1" parent="WIyWlLk6GJQsqaUBKTNV-1">
          <mxGeometry x="890" y="242.5" width="50" height="30" as="geometry" />
        </mxCell>
        <mxCell id="xYpHXJlWxtJXdxh6Vq43-38" style="edgeStyle=none;rounded=0;orthogonalLoop=1;jettySize=auto;html=1;exitX=0.5;exitY=1;exitDx=0;exitDy=0;entryX=1;entryY=0.5;entryDx=0;entryDy=0;fontSize=12;startSize=8;endSize=8;" edge="1" parent="WIyWlLk6GJQsqaUBKTNV-1" source="xYpHXJlWxtJXdxh6Vq43-30" target="xYpHXJlWxtJXdxh6Vq43-33">
          <mxGeometry relative="1" as="geometry">
            <Array as="points">
              <mxPoint x="1080" y="500" />
            </Array>
          </mxGeometry>
        </mxCell>
        <mxCell id="xYpHXJlWxtJXdxh6Vq43-30" value="&lt;font style=&quot;font-size: 10px;&quot;&gt;텍스트, 문맥 &lt;br&gt;생성&lt;/font&gt;" style="rounded=1;whiteSpace=wrap;html=1;fontSize=16;" vertex="1" parent="WIyWlLk6GJQsqaUBKTNV-1">
          <mxGeometry x="1040" y="280" width="80" height="40" as="geometry" />
        </mxCell>
        <mxCell id="xYpHXJlWxtJXdxh6Vq43-40" style="edgeStyle=none;rounded=0;orthogonalLoop=1;jettySize=auto;html=1;exitX=0;exitY=0.5;exitDx=0;exitDy=0;entryX=0.5;entryY=1;entryDx=0;entryDy=0;fontSize=12;startSize=8;endSize=8;" edge="1" parent="WIyWlLk6GJQsqaUBKTNV-1" source="xYpHXJlWxtJXdxh6Vq43-33" target="WIyWlLk6GJQsqaUBKTNV-3">
          <mxGeometry relative="1" as="geometry">
            <Array as="points">
              <mxPoint x="280" y="500" />
            </Array>
          </mxGeometry>
        </mxCell>
        <mxCell id="xYpHXJlWxtJXdxh6Vq43-33" value="채팅 출력" style="rounded=1;whiteSpace=wrap;html=1;fontSize=10;" vertex="1" parent="WIyWlLk6GJQsqaUBKTNV-1">
          <mxGeometry x="600" y="480" width="80" height="40" as="geometry" />
        </mxCell>
        <mxCell id="xYpHXJlWxtJXdxh6Vq43-39" value="&lt;font style=&quot;font-size: 10px;&quot;&gt;NO&lt;/font&gt;" style="text;html=1;strokeColor=none;fillColor=none;align=center;verticalAlign=middle;whiteSpace=wrap;rounded=0;fontSize=16;" vertex="1" parent="WIyWlLk6GJQsqaUBKTNV-1">
          <mxGeometry x="780" y="450" width="60" height="30" as="geometry" />
        </mxCell>
      </root>
    </mxGraphModel>
  </diagram>
</mxfile>
